G04 #@! TF.FileFunction,Copper,L2,Bot,Signal*
%FSLAX46Y46*%
G04 Gerber Fmt 4.6, Leading zero omitted, Abs format (unit mm)*
G04 Created by KiCad (PCBNEW 0.201505220134+5676~23~ubuntu14.04.1-product) date Thu 10 Sep 2015 12:30:41 AM PDT*
%MOMM*%
G01*
G04 APERTURE LIST*
%ADD10C,0.100000*%
%ADD11R,2.032000X2.032000*%
%ADD12O,2.032000X2.032000*%
%ADD13C,1.000760*%
%ADD14C,0.685800*%
%ADD15C,0.152400*%
G04 APERTURE END LIST*
D10*
D11*
X158559500Y-109474000D03*
D12*
X158559500Y-106934000D03*
D11*
X168275000Y-94107000D03*
D12*
X170815000Y-94107000D03*
D11*
X179527200Y-109169200D03*
D12*
X179527200Y-111709200D03*
D13*
X168910000Y-109728000D03*
X170180000Y-108458000D03*
X170180000Y-110998000D03*
D14*
X165735000Y-117919500D03*
X171259500Y-121856500D03*
X166624000Y-103632000D03*
D15*
G36*
X183007800Y-123571800D02*
X182047474Y-123571800D01*
X182047474Y-120718058D01*
X181983974Y-120564376D01*
X181983974Y-94365558D01*
X181743910Y-93784558D01*
X181299780Y-93339653D01*
X180719200Y-93098575D01*
X180090558Y-93098026D01*
X179509558Y-93338090D01*
X179064653Y-93782220D01*
X178823575Y-94362800D01*
X178823026Y-94991442D01*
X179063090Y-95572442D01*
X179507220Y-96017347D01*
X180087800Y-96258425D01*
X180716442Y-96258974D01*
X181297442Y-96018910D01*
X181742347Y-95574780D01*
X181983425Y-94994200D01*
X181983974Y-94365558D01*
X181983974Y-120564376D01*
X181807410Y-120137058D01*
X181363280Y-119692153D01*
X180879869Y-119491423D01*
X180879869Y-110185200D01*
X180879869Y-108153200D01*
X180855441Y-108027296D01*
X180782750Y-107916638D01*
X180673013Y-107842564D01*
X180543200Y-107816531D01*
X178511200Y-107816531D01*
X178385296Y-107840959D01*
X178274638Y-107913650D01*
X178200564Y-108023387D01*
X178174531Y-108153200D01*
X178174531Y-110185200D01*
X178198959Y-110311104D01*
X178271650Y-110421762D01*
X178381387Y-110495836D01*
X178511200Y-110521869D01*
X178943120Y-110521869D01*
X178780998Y-110588733D01*
X178409015Y-110959583D01*
X178207266Y-111444555D01*
X178206468Y-111448583D01*
X178264572Y-111658400D01*
X179476400Y-111658400D01*
X179476400Y-111638400D01*
X179578000Y-111638400D01*
X179578000Y-111658400D01*
X180789828Y-111658400D01*
X180847932Y-111448583D01*
X180847134Y-111444555D01*
X180645385Y-110959583D01*
X180273402Y-110588733D01*
X180111279Y-110521869D01*
X180543200Y-110521869D01*
X180669104Y-110497441D01*
X180779762Y-110424750D01*
X180853836Y-110315013D01*
X180879869Y-110185200D01*
X180879869Y-119491423D01*
X180847932Y-119478161D01*
X180847932Y-111969817D01*
X180789828Y-111760000D01*
X179578000Y-111760000D01*
X179578000Y-112971895D01*
X179787817Y-113029936D01*
X180273402Y-112829667D01*
X180645385Y-112458817D01*
X180847134Y-111973845D01*
X180847932Y-111969817D01*
X180847932Y-119478161D01*
X180782700Y-119451075D01*
X180154058Y-119450526D01*
X179573058Y-119690590D01*
X179476400Y-119787079D01*
X179476400Y-112971895D01*
X179476400Y-111760000D01*
X178264572Y-111760000D01*
X178206468Y-111969817D01*
X178207266Y-111973845D01*
X178409015Y-112458817D01*
X178780998Y-112829667D01*
X179266583Y-113029936D01*
X179476400Y-112971895D01*
X179476400Y-119787079D01*
X179128153Y-120134720D01*
X178887075Y-120715300D01*
X178886526Y-121343942D01*
X179126590Y-121924942D01*
X179570720Y-122369847D01*
X180151300Y-122610925D01*
X180779942Y-122611474D01*
X181360942Y-122371410D01*
X181805847Y-121927280D01*
X182046925Y-121346700D01*
X182047474Y-120718058D01*
X182047474Y-123571800D01*
X172135736Y-123571800D01*
X172135736Y-94367617D01*
X172135736Y-93846383D01*
X171935467Y-93360798D01*
X171564617Y-92988815D01*
X171079645Y-92787066D01*
X171075617Y-92786268D01*
X170865800Y-92844372D01*
X170865800Y-94056200D01*
X172077695Y-94056200D01*
X172135736Y-93846383D01*
X172135736Y-94367617D01*
X172077695Y-94157800D01*
X170865800Y-94157800D01*
X170865800Y-95369628D01*
X171075617Y-95427732D01*
X171079645Y-95426934D01*
X171564617Y-95225185D01*
X171935467Y-94853202D01*
X172135736Y-94367617D01*
X172135736Y-123571800D01*
X171010724Y-123571800D01*
X171010724Y-110833512D01*
X171010724Y-108293512D01*
X170884542Y-107988129D01*
X170764200Y-107867576D01*
X170764200Y-95369628D01*
X170764200Y-94157800D01*
X170744200Y-94157800D01*
X170744200Y-94056200D01*
X170764200Y-94056200D01*
X170764200Y-92844372D01*
X170554383Y-92786268D01*
X170550355Y-92787066D01*
X170065383Y-92988815D01*
X169694533Y-93360798D01*
X169627669Y-93522920D01*
X169627669Y-93091000D01*
X169603241Y-92965096D01*
X169530550Y-92854438D01*
X169420813Y-92780364D01*
X169291000Y-92754331D01*
X167259000Y-92754331D01*
X167133096Y-92778759D01*
X167022438Y-92851450D01*
X166948364Y-92961187D01*
X166922331Y-93091000D01*
X166922331Y-95123000D01*
X166946759Y-95248904D01*
X167019450Y-95359562D01*
X167129187Y-95433636D01*
X167259000Y-95459669D01*
X169291000Y-95459669D01*
X169416904Y-95435241D01*
X169527562Y-95362550D01*
X169601636Y-95252813D01*
X169627669Y-95123000D01*
X169627669Y-94691079D01*
X169694533Y-94853202D01*
X170065383Y-95225185D01*
X170550355Y-95426934D01*
X170554383Y-95427732D01*
X170764200Y-95369628D01*
X170764200Y-107867576D01*
X170651100Y-107754279D01*
X170345937Y-107627565D01*
X170015512Y-107627276D01*
X169710129Y-107753458D01*
X169476279Y-107986900D01*
X169349565Y-108292063D01*
X169349276Y-108622488D01*
X169475458Y-108927871D01*
X169708900Y-109161721D01*
X170014063Y-109288435D01*
X170344488Y-109288724D01*
X170649871Y-109162542D01*
X170883721Y-108929100D01*
X171010435Y-108623937D01*
X171010724Y-108293512D01*
X171010724Y-110833512D01*
X170884542Y-110528129D01*
X170651100Y-110294279D01*
X170345937Y-110167565D01*
X170015512Y-110167276D01*
X169740724Y-110280816D01*
X169740724Y-109563512D01*
X169614542Y-109258129D01*
X169381100Y-109024279D01*
X169075937Y-108897565D01*
X168745512Y-108897276D01*
X168440129Y-109023458D01*
X168206279Y-109256900D01*
X168079565Y-109562063D01*
X168079276Y-109892488D01*
X168205458Y-110197871D01*
X168438900Y-110431721D01*
X168744063Y-110558435D01*
X169074488Y-110558724D01*
X169379871Y-110432542D01*
X169613721Y-110199100D01*
X169740435Y-109893937D01*
X169740724Y-109563512D01*
X169740724Y-110280816D01*
X169710129Y-110293458D01*
X169476279Y-110526900D01*
X169349565Y-110832063D01*
X169349276Y-111162488D01*
X169475458Y-111467871D01*
X169708900Y-111701721D01*
X170014063Y-111828435D01*
X170344488Y-111828724D01*
X170649871Y-111702542D01*
X170883721Y-111469100D01*
X171010435Y-111163937D01*
X171010724Y-110833512D01*
X171010724Y-123571800D01*
X160584474Y-123571800D01*
X160584474Y-120591058D01*
X160520974Y-120437376D01*
X160520974Y-94619558D01*
X160280910Y-94038558D01*
X159836780Y-93593653D01*
X159256200Y-93352575D01*
X158627558Y-93352026D01*
X158046558Y-93592090D01*
X157601653Y-94036220D01*
X157360575Y-94616800D01*
X157360026Y-95245442D01*
X157600090Y-95826442D01*
X158044220Y-96271347D01*
X158624800Y-96512425D01*
X159253442Y-96512974D01*
X159834442Y-96272910D01*
X160279347Y-95828780D01*
X160520425Y-95248200D01*
X160520974Y-94619558D01*
X160520974Y-120437376D01*
X160344410Y-120010058D01*
X159912169Y-119577062D01*
X159912169Y-110490000D01*
X159912169Y-108458000D01*
X159887741Y-108332096D01*
X159815050Y-108221438D01*
X159705313Y-108147364D01*
X159575500Y-108121331D01*
X159143579Y-108121331D01*
X159305702Y-108054467D01*
X159677685Y-107683617D01*
X159879434Y-107198645D01*
X159880232Y-107194617D01*
X159880232Y-106673383D01*
X159879434Y-106669355D01*
X159677685Y-106184383D01*
X159305702Y-105813533D01*
X158820117Y-105613264D01*
X158610300Y-105671305D01*
X158610300Y-106883200D01*
X159822128Y-106883200D01*
X159880232Y-106673383D01*
X159880232Y-107194617D01*
X159822128Y-106984800D01*
X158610300Y-106984800D01*
X158610300Y-107004800D01*
X158508700Y-107004800D01*
X158508700Y-106984800D01*
X158508700Y-106883200D01*
X158508700Y-105671305D01*
X158298883Y-105613264D01*
X157813298Y-105813533D01*
X157441315Y-106184383D01*
X157239566Y-106669355D01*
X157238768Y-106673383D01*
X157296872Y-106883200D01*
X158508700Y-106883200D01*
X158508700Y-106984800D01*
X157296872Y-106984800D01*
X157238768Y-107194617D01*
X157239566Y-107198645D01*
X157441315Y-107683617D01*
X157813298Y-108054467D01*
X157975420Y-108121331D01*
X157543500Y-108121331D01*
X157417596Y-108145759D01*
X157306938Y-108218450D01*
X157232864Y-108328187D01*
X157206831Y-108458000D01*
X157206831Y-110490000D01*
X157231259Y-110615904D01*
X157303950Y-110726562D01*
X157413687Y-110800636D01*
X157543500Y-110826669D01*
X159575500Y-110826669D01*
X159701404Y-110802241D01*
X159812062Y-110729550D01*
X159886136Y-110619813D01*
X159912169Y-110490000D01*
X159912169Y-119577062D01*
X159900280Y-119565153D01*
X159319700Y-119324075D01*
X158691058Y-119323526D01*
X158110058Y-119563590D01*
X157665153Y-120007720D01*
X157424075Y-120588300D01*
X157423526Y-121216942D01*
X157663590Y-121797942D01*
X158107720Y-122242847D01*
X158688300Y-122483925D01*
X159316942Y-122484474D01*
X159897942Y-122244410D01*
X160342847Y-121800280D01*
X160583925Y-121219700D01*
X160584474Y-120591058D01*
X160584474Y-123571800D01*
X156336200Y-123571800D01*
X156336200Y-92328200D01*
X183007800Y-92328200D01*
X183007800Y-123571800D01*
X183007800Y-123571800D01*
G37*
X183007800Y-123571800D02*
X182047474Y-123571800D01*
X182047474Y-120718058D01*
X181983974Y-120564376D01*
X181983974Y-94365558D01*
X181743910Y-93784558D01*
X181299780Y-93339653D01*
X180719200Y-93098575D01*
X180090558Y-93098026D01*
X179509558Y-93338090D01*
X179064653Y-93782220D01*
X178823575Y-94362800D01*
X178823026Y-94991442D01*
X179063090Y-95572442D01*
X179507220Y-96017347D01*
X180087800Y-96258425D01*
X180716442Y-96258974D01*
X181297442Y-96018910D01*
X181742347Y-95574780D01*
X181983425Y-94994200D01*
X181983974Y-94365558D01*
X181983974Y-120564376D01*
X181807410Y-120137058D01*
X181363280Y-119692153D01*
X180879869Y-119491423D01*
X180879869Y-110185200D01*
X180879869Y-108153200D01*
X180855441Y-108027296D01*
X180782750Y-107916638D01*
X180673013Y-107842564D01*
X180543200Y-107816531D01*
X178511200Y-107816531D01*
X178385296Y-107840959D01*
X178274638Y-107913650D01*
X178200564Y-108023387D01*
X178174531Y-108153200D01*
X178174531Y-110185200D01*
X178198959Y-110311104D01*
X178271650Y-110421762D01*
X178381387Y-110495836D01*
X178511200Y-110521869D01*
X178943120Y-110521869D01*
X178780998Y-110588733D01*
X178409015Y-110959583D01*
X178207266Y-111444555D01*
X178206468Y-111448583D01*
X178264572Y-111658400D01*
X179476400Y-111658400D01*
X179476400Y-111638400D01*
X179578000Y-111638400D01*
X179578000Y-111658400D01*
X180789828Y-111658400D01*
X180847932Y-111448583D01*
X180847134Y-111444555D01*
X180645385Y-110959583D01*
X180273402Y-110588733D01*
X180111279Y-110521869D01*
X180543200Y-110521869D01*
X180669104Y-110497441D01*
X180779762Y-110424750D01*
X180853836Y-110315013D01*
X180879869Y-110185200D01*
X180879869Y-119491423D01*
X180847932Y-119478161D01*
X180847932Y-111969817D01*
X180789828Y-111760000D01*
X179578000Y-111760000D01*
X179578000Y-112971895D01*
X179787817Y-113029936D01*
X180273402Y-112829667D01*
X180645385Y-112458817D01*
X180847134Y-111973845D01*
X180847932Y-111969817D01*
X180847932Y-119478161D01*
X180782700Y-119451075D01*
X180154058Y-119450526D01*
X179573058Y-119690590D01*
X179476400Y-119787079D01*
X179476400Y-112971895D01*
X179476400Y-111760000D01*
X178264572Y-111760000D01*
X178206468Y-111969817D01*
X178207266Y-111973845D01*
X178409015Y-112458817D01*
X178780998Y-112829667D01*
X179266583Y-113029936D01*
X179476400Y-112971895D01*
X179476400Y-119787079D01*
X179128153Y-120134720D01*
X178887075Y-120715300D01*
X178886526Y-121343942D01*
X179126590Y-121924942D01*
X179570720Y-122369847D01*
X180151300Y-122610925D01*
X180779942Y-122611474D01*
X181360942Y-122371410D01*
X181805847Y-121927280D01*
X182046925Y-121346700D01*
X182047474Y-120718058D01*
X182047474Y-123571800D01*
X172135736Y-123571800D01*
X172135736Y-94367617D01*
X172135736Y-93846383D01*
X171935467Y-93360798D01*
X171564617Y-92988815D01*
X171079645Y-92787066D01*
X171075617Y-92786268D01*
X170865800Y-92844372D01*
X170865800Y-94056200D01*
X172077695Y-94056200D01*
X172135736Y-93846383D01*
X172135736Y-94367617D01*
X172077695Y-94157800D01*
X170865800Y-94157800D01*
X170865800Y-95369628D01*
X171075617Y-95427732D01*
X171079645Y-95426934D01*
X171564617Y-95225185D01*
X171935467Y-94853202D01*
X172135736Y-94367617D01*
X172135736Y-123571800D01*
X171010724Y-123571800D01*
X171010724Y-110833512D01*
X171010724Y-108293512D01*
X170884542Y-107988129D01*
X170764200Y-107867576D01*
X170764200Y-95369628D01*
X170764200Y-94157800D01*
X170744200Y-94157800D01*
X170744200Y-94056200D01*
X170764200Y-94056200D01*
X170764200Y-92844372D01*
X170554383Y-92786268D01*
X170550355Y-92787066D01*
X170065383Y-92988815D01*
X169694533Y-93360798D01*
X169627669Y-93522920D01*
X169627669Y-93091000D01*
X169603241Y-92965096D01*
X169530550Y-92854438D01*
X169420813Y-92780364D01*
X169291000Y-92754331D01*
X167259000Y-92754331D01*
X167133096Y-92778759D01*
X167022438Y-92851450D01*
X166948364Y-92961187D01*
X166922331Y-93091000D01*
X166922331Y-95123000D01*
X166946759Y-95248904D01*
X167019450Y-95359562D01*
X167129187Y-95433636D01*
X167259000Y-95459669D01*
X169291000Y-95459669D01*
X169416904Y-95435241D01*
X169527562Y-95362550D01*
X169601636Y-95252813D01*
X169627669Y-95123000D01*
X169627669Y-94691079D01*
X169694533Y-94853202D01*
X170065383Y-95225185D01*
X170550355Y-95426934D01*
X170554383Y-95427732D01*
X170764200Y-95369628D01*
X170764200Y-107867576D01*
X170651100Y-107754279D01*
X170345937Y-107627565D01*
X170015512Y-107627276D01*
X169710129Y-107753458D01*
X169476279Y-107986900D01*
X169349565Y-108292063D01*
X169349276Y-108622488D01*
X169475458Y-108927871D01*
X169708900Y-109161721D01*
X170014063Y-109288435D01*
X170344488Y-109288724D01*
X170649871Y-109162542D01*
X170883721Y-108929100D01*
X171010435Y-108623937D01*
X171010724Y-108293512D01*
X171010724Y-110833512D01*
X170884542Y-110528129D01*
X170651100Y-110294279D01*
X170345937Y-110167565D01*
X170015512Y-110167276D01*
X169740724Y-110280816D01*
X169740724Y-109563512D01*
X169614542Y-109258129D01*
X169381100Y-109024279D01*
X169075937Y-108897565D01*
X168745512Y-108897276D01*
X168440129Y-109023458D01*
X168206279Y-109256900D01*
X168079565Y-109562063D01*
X168079276Y-109892488D01*
X168205458Y-110197871D01*
X168438900Y-110431721D01*
X168744063Y-110558435D01*
X169074488Y-110558724D01*
X169379871Y-110432542D01*
X169613721Y-110199100D01*
X169740435Y-109893937D01*
X169740724Y-109563512D01*
X169740724Y-110280816D01*
X169710129Y-110293458D01*
X169476279Y-110526900D01*
X169349565Y-110832063D01*
X169349276Y-111162488D01*
X169475458Y-111467871D01*
X169708900Y-111701721D01*
X170014063Y-111828435D01*
X170344488Y-111828724D01*
X170649871Y-111702542D01*
X170883721Y-111469100D01*
X171010435Y-111163937D01*
X171010724Y-110833512D01*
X171010724Y-123571800D01*
X160584474Y-123571800D01*
X160584474Y-120591058D01*
X160520974Y-120437376D01*
X160520974Y-94619558D01*
X160280910Y-94038558D01*
X159836780Y-93593653D01*
X159256200Y-93352575D01*
X158627558Y-93352026D01*
X158046558Y-93592090D01*
X157601653Y-94036220D01*
X157360575Y-94616800D01*
X157360026Y-95245442D01*
X157600090Y-95826442D01*
X158044220Y-96271347D01*
X158624800Y-96512425D01*
X159253442Y-96512974D01*
X159834442Y-96272910D01*
X160279347Y-95828780D01*
X160520425Y-95248200D01*
X160520974Y-94619558D01*
X160520974Y-120437376D01*
X160344410Y-120010058D01*
X159912169Y-119577062D01*
X159912169Y-110490000D01*
X159912169Y-108458000D01*
X159887741Y-108332096D01*
X159815050Y-108221438D01*
X159705313Y-108147364D01*
X159575500Y-108121331D01*
X159143579Y-108121331D01*
X159305702Y-108054467D01*
X159677685Y-107683617D01*
X159879434Y-107198645D01*
X159880232Y-107194617D01*
X159880232Y-106673383D01*
X159879434Y-106669355D01*
X159677685Y-106184383D01*
X159305702Y-105813533D01*
X158820117Y-105613264D01*
X158610300Y-105671305D01*
X158610300Y-106883200D01*
X159822128Y-106883200D01*
X159880232Y-106673383D01*
X159880232Y-107194617D01*
X159822128Y-106984800D01*
X158610300Y-106984800D01*
X158610300Y-107004800D01*
X158508700Y-107004800D01*
X158508700Y-106984800D01*
X158508700Y-106883200D01*
X158508700Y-105671305D01*
X158298883Y-105613264D01*
X157813298Y-105813533D01*
X157441315Y-106184383D01*
X157239566Y-106669355D01*
X157238768Y-106673383D01*
X157296872Y-106883200D01*
X158508700Y-106883200D01*
X158508700Y-106984800D01*
X157296872Y-106984800D01*
X157238768Y-107194617D01*
X157239566Y-107198645D01*
X157441315Y-107683617D01*
X157813298Y-108054467D01*
X157975420Y-108121331D01*
X157543500Y-108121331D01*
X157417596Y-108145759D01*
X157306938Y-108218450D01*
X157232864Y-108328187D01*
X157206831Y-108458000D01*
X157206831Y-110490000D01*
X157231259Y-110615904D01*
X157303950Y-110726562D01*
X157413687Y-110800636D01*
X157543500Y-110826669D01*
X159575500Y-110826669D01*
X159701404Y-110802241D01*
X159812062Y-110729550D01*
X159886136Y-110619813D01*
X159912169Y-110490000D01*
X159912169Y-119577062D01*
X159900280Y-119565153D01*
X159319700Y-119324075D01*
X158691058Y-119323526D01*
X158110058Y-119563590D01*
X157665153Y-120007720D01*
X157424075Y-120588300D01*
X157423526Y-121216942D01*
X157663590Y-121797942D01*
X158107720Y-122242847D01*
X158688300Y-122483925D01*
X159316942Y-122484474D01*
X159897942Y-122244410D01*
X160342847Y-121800280D01*
X160583925Y-121219700D01*
X160584474Y-120591058D01*
X160584474Y-123571800D01*
X156336200Y-123571800D01*
X156336200Y-92328200D01*
X183007800Y-92328200D01*
X183007800Y-123571800D01*
M02*
