G04 #@! TF.FileFunction,Copper,L1,Top,Signal*
%FSLAX46Y46*%
G04 Gerber Fmt 4.6, Leading zero omitted, Abs format (unit mm)*
G04 Created by KiCad (PCBNEW 0.201505220134+5676~23~ubuntu14.04.1-product) date Thu 10 Sep 2015 12:30:41 AM PDT*
%MOMM*%
G01*
G04 APERTURE LIST*
%ADD10C,0.100000*%
%ADD11R,2.000000X2.500000*%
%ADD12R,2.500000X2.000000*%
%ADD13R,2.032000X2.032000*%
%ADD14O,2.032000X2.032000*%
%ADD15R,1.300000X1.500000*%
%ADD16R,1.500000X1.300000*%
%ADD17C,2.999740*%
%ADD18C,1.000760*%
%ADD19C,0.685800*%
%ADD20C,0.609600*%
%ADD21C,0.254000*%
%ADD22C,0.152400*%
G04 APERTURE END LIST*
D10*
D11*
X162147000Y-113792000D03*
X158147000Y-113792000D03*
X177260000Y-116840000D03*
X173260000Y-116840000D03*
D12*
X166573200Y-101415600D03*
X166573200Y-97415600D03*
D11*
X179546000Y-101650800D03*
X175546000Y-101650800D03*
D13*
X158559500Y-109474000D03*
D14*
X158559500Y-106934000D03*
D13*
X168275000Y-94107000D03*
D14*
X170815000Y-94107000D03*
D13*
X179527200Y-109169200D03*
D14*
X179527200Y-111709200D03*
D15*
X162255200Y-102536000D03*
X162255200Y-105236000D03*
X165798500Y-113204000D03*
X165798500Y-115904000D03*
D16*
X164976800Y-107950000D03*
X162276800Y-107950000D03*
D15*
X171145200Y-97405200D03*
X171145200Y-100105200D03*
X171196000Y-105490000D03*
X171196000Y-102790000D03*
X169468800Y-116564400D03*
X169468800Y-113864400D03*
X169468800Y-119147600D03*
X169468800Y-121847600D03*
D17*
X163830000Y-121602500D03*
X163576000Y-94424500D03*
X176022000Y-97790000D03*
D18*
X168910000Y-109728000D03*
X170180000Y-108458000D03*
X170180000Y-110998000D03*
D19*
X165735000Y-117919500D03*
X171259500Y-121856500D03*
X166624000Y-103632000D03*
D20*
X165798500Y-113204000D02*
X162735000Y-113204000D01*
X162735000Y-113204000D02*
X162147000Y-113792000D01*
X162147000Y-113792000D02*
X162147000Y-108079800D01*
X162147000Y-108079800D02*
X162276800Y-107950000D01*
X162255200Y-105236000D02*
X162255200Y-107928400D01*
D21*
X162255200Y-107928400D02*
X162276800Y-107950000D01*
X162356800Y-108030000D02*
X162276800Y-107950000D01*
D20*
X163830000Y-121602500D02*
X163830000Y-119507000D01*
X158147000Y-115665500D02*
X158147000Y-113792000D01*
X159258000Y-116776500D02*
X158147000Y-115665500D01*
X161099500Y-116776500D02*
X159258000Y-116776500D01*
X163830000Y-119507000D02*
X161099500Y-116776500D01*
X158559500Y-109474000D02*
X158559500Y-113379500D01*
X158559500Y-113379500D02*
X158147000Y-113792000D01*
X165798500Y-115904000D02*
X165798500Y-117856000D01*
X165798500Y-117856000D02*
X165735000Y-117919500D01*
X169468800Y-121847600D02*
X171250600Y-121847600D01*
X171250600Y-121847600D02*
X171259500Y-121856500D01*
D21*
X177260000Y-116840000D02*
X178308000Y-116840000D01*
D20*
X179527200Y-115620800D02*
X179527200Y-111709200D01*
X178308000Y-116840000D02*
X179527200Y-115620800D01*
X166573200Y-101415600D02*
X166573200Y-103581200D01*
D21*
X166573200Y-103581200D02*
X166624000Y-103632000D01*
D20*
X173260000Y-116840000D02*
X171196000Y-116840000D01*
X170920400Y-116564400D02*
X169468800Y-116564400D01*
X171196000Y-116840000D02*
X170920400Y-116564400D01*
D21*
X169468800Y-116564400D02*
X169468800Y-119147600D01*
D20*
X176022000Y-97790000D02*
X178244500Y-97790000D01*
X179546000Y-99091500D02*
X179546000Y-101650800D01*
X178244500Y-97790000D02*
X179546000Y-99091500D01*
X179546000Y-101650800D02*
X179546000Y-109150400D01*
D21*
X179546000Y-109150400D02*
X179527200Y-109169200D01*
D20*
X175546000Y-101650800D02*
X171145200Y-101650800D01*
D21*
X171196000Y-101600000D02*
X171145200Y-101600000D01*
D20*
X171145200Y-101650800D02*
X171196000Y-101600000D01*
X171145200Y-100105200D02*
X171145200Y-101600000D01*
X171145200Y-101600000D02*
X171145200Y-102739200D01*
D21*
X171145200Y-102739200D02*
X171196000Y-102790000D01*
D20*
X170180000Y-110998000D02*
X170180000Y-111379000D01*
X170180000Y-111379000D02*
X169468800Y-112090200D01*
X169468800Y-112090200D02*
X169468800Y-113864400D01*
D21*
X169367200Y-113762800D02*
X169468800Y-113864400D01*
D20*
X170180000Y-108458000D02*
X170180000Y-108077000D01*
X170180000Y-108077000D02*
X171196000Y-107061000D01*
X171196000Y-107061000D02*
X171196000Y-105490000D01*
X168910000Y-109728000D02*
X168275000Y-109728000D01*
X166497000Y-107950000D02*
X164976800Y-107950000D01*
X168275000Y-109728000D02*
X166497000Y-107950000D01*
D22*
G36*
X183007800Y-123571800D02*
X182047474Y-123571800D01*
X182047474Y-120718058D01*
X181983974Y-120564376D01*
X181983974Y-94365558D01*
X181743910Y-93784558D01*
X181299780Y-93339653D01*
X180719200Y-93098575D01*
X180090558Y-93098026D01*
X179509558Y-93338090D01*
X179064653Y-93782220D01*
X178823575Y-94362800D01*
X178823026Y-94991442D01*
X179063090Y-95572442D01*
X179507220Y-96017347D01*
X180087800Y-96258425D01*
X180716442Y-96258974D01*
X181297442Y-96018910D01*
X181742347Y-95574780D01*
X181983425Y-94994200D01*
X181983974Y-94365558D01*
X181983974Y-120564376D01*
X181807410Y-120137058D01*
X181363280Y-119692153D01*
X180899774Y-119499688D01*
X180899774Y-111709200D01*
X180797301Y-111194032D01*
X180505481Y-110757293D01*
X180153144Y-110521869D01*
X180543200Y-110521869D01*
X180669104Y-110497441D01*
X180779762Y-110424750D01*
X180853836Y-110315013D01*
X180879869Y-110185200D01*
X180879869Y-108153200D01*
X180855441Y-108027296D01*
X180782750Y-107916638D01*
X180673013Y-107842564D01*
X180543200Y-107816531D01*
X180181000Y-107816531D01*
X180181000Y-103237469D01*
X180546000Y-103237469D01*
X180671904Y-103213041D01*
X180782562Y-103140350D01*
X180856636Y-103030613D01*
X180882669Y-102900800D01*
X180882669Y-100400800D01*
X180858241Y-100274896D01*
X180785550Y-100164238D01*
X180675813Y-100090164D01*
X180546000Y-100064131D01*
X180181000Y-100064131D01*
X180181000Y-99091500D01*
X180132664Y-98848496D01*
X179995013Y-98642487D01*
X178693513Y-97340987D01*
X178487504Y-97203336D01*
X178244500Y-97155000D01*
X177739761Y-97155000D01*
X177574362Y-96754703D01*
X177060005Y-96239447D01*
X176387620Y-95960249D01*
X175659574Y-95959613D01*
X174986703Y-96237638D01*
X174471447Y-96751995D01*
X174192249Y-97424380D01*
X174191613Y-98152426D01*
X174469638Y-98825297D01*
X174983995Y-99340553D01*
X175656380Y-99619751D01*
X176384426Y-99620387D01*
X177057297Y-99342362D01*
X177572553Y-98828005D01*
X177739894Y-98425000D01*
X177981473Y-98425000D01*
X178911000Y-99354526D01*
X178911000Y-100064131D01*
X178546000Y-100064131D01*
X178420096Y-100088559D01*
X178309438Y-100161250D01*
X178235364Y-100270987D01*
X178209331Y-100400800D01*
X178209331Y-102900800D01*
X178233759Y-103026704D01*
X178306450Y-103137362D01*
X178416187Y-103211436D01*
X178546000Y-103237469D01*
X178911000Y-103237469D01*
X178911000Y-107816531D01*
X178511200Y-107816531D01*
X178385296Y-107840959D01*
X178274638Y-107913650D01*
X178200564Y-108023387D01*
X178174531Y-108153200D01*
X178174531Y-110185200D01*
X178198959Y-110311104D01*
X178271650Y-110421762D01*
X178381387Y-110495836D01*
X178511200Y-110521869D01*
X178901255Y-110521869D01*
X178548919Y-110757293D01*
X178257099Y-111194032D01*
X178154626Y-111709200D01*
X178257099Y-112224368D01*
X178548919Y-112661107D01*
X178892200Y-112890480D01*
X178892200Y-115357774D01*
X178596669Y-115653305D01*
X178596669Y-115590000D01*
X178572241Y-115464096D01*
X178499550Y-115353438D01*
X178389813Y-115279364D01*
X178260000Y-115253331D01*
X176882669Y-115253331D01*
X176882669Y-102900800D01*
X176882669Y-100400800D01*
X176858241Y-100274896D01*
X176785550Y-100164238D01*
X176675813Y-100090164D01*
X176546000Y-100064131D01*
X174546000Y-100064131D01*
X174420096Y-100088559D01*
X174309438Y-100161250D01*
X174235364Y-100270987D01*
X174209331Y-100400800D01*
X174209331Y-101015800D01*
X172161200Y-101015800D01*
X172161200Y-94133374D01*
X172161200Y-94080626D01*
X172058727Y-93565458D01*
X171766907Y-93128719D01*
X171330168Y-92836899D01*
X170815000Y-92734426D01*
X170299832Y-92836899D01*
X169863093Y-93128719D01*
X169621200Y-93490737D01*
X169621200Y-93025319D01*
X169570930Y-92903957D01*
X169478043Y-92811070D01*
X169356681Y-92760800D01*
X169225319Y-92760800D01*
X168408350Y-92760800D01*
X168325800Y-92843350D01*
X168325800Y-94056200D01*
X168345800Y-94056200D01*
X168345800Y-94157800D01*
X168325800Y-94157800D01*
X168325800Y-95370650D01*
X168408350Y-95453200D01*
X169225319Y-95453200D01*
X169356681Y-95453200D01*
X169478043Y-95402930D01*
X169570930Y-95310043D01*
X169621200Y-95188681D01*
X169621200Y-94723262D01*
X169863093Y-95085281D01*
X170299832Y-95377101D01*
X170815000Y-95479574D01*
X171330168Y-95377101D01*
X171766907Y-95085281D01*
X172058727Y-94648542D01*
X172161200Y-94133374D01*
X172161200Y-101015800D01*
X172085054Y-101015800D01*
X172105836Y-100985013D01*
X172131869Y-100855200D01*
X172131869Y-99355200D01*
X172125400Y-99321858D01*
X172125400Y-98220881D01*
X172125400Y-97538550D01*
X172125400Y-97271850D01*
X172125400Y-96589519D01*
X172075130Y-96468157D01*
X171982243Y-96375270D01*
X171860881Y-96325000D01*
X171729519Y-96325000D01*
X171278550Y-96325000D01*
X171196000Y-96407550D01*
X171196000Y-97354400D01*
X172042850Y-97354400D01*
X172125400Y-97271850D01*
X172125400Y-97538550D01*
X172042850Y-97456000D01*
X171196000Y-97456000D01*
X171196000Y-98402850D01*
X171278550Y-98485400D01*
X171729519Y-98485400D01*
X171860881Y-98485400D01*
X171982243Y-98435130D01*
X172075130Y-98342243D01*
X172125400Y-98220881D01*
X172125400Y-99321858D01*
X172107441Y-99229296D01*
X172034750Y-99118638D01*
X171925013Y-99044564D01*
X171795200Y-99018531D01*
X171094400Y-99018531D01*
X171094400Y-98402850D01*
X171094400Y-97456000D01*
X171094400Y-97354400D01*
X171094400Y-96407550D01*
X171011850Y-96325000D01*
X170560881Y-96325000D01*
X170429519Y-96325000D01*
X170308157Y-96375270D01*
X170215270Y-96468157D01*
X170165000Y-96589519D01*
X170165000Y-97271850D01*
X170247550Y-97354400D01*
X171094400Y-97354400D01*
X171094400Y-97456000D01*
X170247550Y-97456000D01*
X170165000Y-97538550D01*
X170165000Y-98220881D01*
X170215270Y-98342243D01*
X170308157Y-98435130D01*
X170429519Y-98485400D01*
X170560881Y-98485400D01*
X171011850Y-98485400D01*
X171094400Y-98402850D01*
X171094400Y-99018531D01*
X170495200Y-99018531D01*
X170369296Y-99042959D01*
X170258638Y-99115650D01*
X170184564Y-99225387D01*
X170158531Y-99355200D01*
X170158531Y-100855200D01*
X170182959Y-100981104D01*
X170255650Y-101091762D01*
X170365387Y-101165836D01*
X170495200Y-101191869D01*
X170510200Y-101191869D01*
X170510200Y-101600000D01*
X170510200Y-101650800D01*
X170510200Y-101710276D01*
X170420096Y-101727759D01*
X170309438Y-101800450D01*
X170235364Y-101910187D01*
X170209331Y-102040000D01*
X170209331Y-103540000D01*
X170233759Y-103665904D01*
X170306450Y-103776562D01*
X170416187Y-103850636D01*
X170546000Y-103876669D01*
X171846000Y-103876669D01*
X171971904Y-103852241D01*
X172082562Y-103779550D01*
X172156636Y-103669813D01*
X172182669Y-103540000D01*
X172182669Y-102285800D01*
X174209331Y-102285800D01*
X174209331Y-102900800D01*
X174233759Y-103026704D01*
X174306450Y-103137362D01*
X174416187Y-103211436D01*
X174546000Y-103237469D01*
X176546000Y-103237469D01*
X176671904Y-103213041D01*
X176782562Y-103140350D01*
X176856636Y-103030613D01*
X176882669Y-102900800D01*
X176882669Y-115253331D01*
X176260000Y-115253331D01*
X176134096Y-115277759D01*
X176023438Y-115350450D01*
X175949364Y-115460187D01*
X175923331Y-115590000D01*
X175923331Y-118090000D01*
X175947759Y-118215904D01*
X176020450Y-118326562D01*
X176130187Y-118400636D01*
X176260000Y-118426669D01*
X178260000Y-118426669D01*
X178385904Y-118402241D01*
X178496562Y-118329550D01*
X178570636Y-118219813D01*
X178596669Y-118090000D01*
X178596669Y-117396151D01*
X178757013Y-117289013D01*
X179976213Y-116069813D01*
X180113864Y-115863804D01*
X180162200Y-115620800D01*
X180162200Y-112890480D01*
X180505481Y-112661107D01*
X180797301Y-112224368D01*
X180899774Y-111709200D01*
X180899774Y-119499688D01*
X180782700Y-119451075D01*
X180154058Y-119450526D01*
X179573058Y-119690590D01*
X179128153Y-120134720D01*
X178887075Y-120715300D01*
X178886526Y-121343942D01*
X179126590Y-121924942D01*
X179570720Y-122369847D01*
X180151300Y-122610925D01*
X180779942Y-122611474D01*
X181360942Y-122371410D01*
X181805847Y-121927280D01*
X182046925Y-121346700D01*
X182047474Y-120718058D01*
X182047474Y-123571800D01*
X174596669Y-123571800D01*
X174596669Y-118090000D01*
X174596669Y-115590000D01*
X174572241Y-115464096D01*
X174499550Y-115353438D01*
X174389813Y-115279364D01*
X174260000Y-115253331D01*
X172260000Y-115253331D01*
X172182669Y-115268334D01*
X172182669Y-106240000D01*
X172182669Y-104740000D01*
X172158241Y-104614096D01*
X172085550Y-104503438D01*
X171975813Y-104429364D01*
X171846000Y-104403331D01*
X170546000Y-104403331D01*
X170420096Y-104427759D01*
X170309438Y-104500450D01*
X170235364Y-104610187D01*
X170209331Y-104740000D01*
X170209331Y-106240000D01*
X170233759Y-106365904D01*
X170306450Y-106476562D01*
X170416187Y-106550636D01*
X170546000Y-106576669D01*
X170561000Y-106576669D01*
X170561000Y-106797974D01*
X169730987Y-107627987D01*
X169593336Y-107833996D01*
X169584388Y-107878979D01*
X169476279Y-107986900D01*
X169349565Y-108292063D01*
X169349276Y-108622488D01*
X169475458Y-108927871D01*
X169708900Y-109161721D01*
X170014063Y-109288435D01*
X170344488Y-109288724D01*
X170649871Y-109162542D01*
X170883721Y-108929100D01*
X171010435Y-108623937D01*
X171010724Y-108293512D01*
X170967097Y-108187928D01*
X171645013Y-107510013D01*
X171782664Y-107304004D01*
X171831000Y-107061000D01*
X171831000Y-106576669D01*
X171846000Y-106576669D01*
X171971904Y-106552241D01*
X172082562Y-106479550D01*
X172156636Y-106369813D01*
X172182669Y-106240000D01*
X172182669Y-115268334D01*
X172134096Y-115277759D01*
X172023438Y-115350450D01*
X171949364Y-115460187D01*
X171923331Y-115590000D01*
X171923331Y-116205000D01*
X171459026Y-116205000D01*
X171369413Y-116115387D01*
X171163404Y-115977736D01*
X171010724Y-115947366D01*
X171010724Y-110833512D01*
X170884542Y-110528129D01*
X170651100Y-110294279D01*
X170345937Y-110167565D01*
X170015512Y-110167276D01*
X169740724Y-110280816D01*
X169740724Y-109563512D01*
X169614542Y-109258129D01*
X169381100Y-109024279D01*
X169075937Y-108897565D01*
X168745512Y-108897276D01*
X168460193Y-109015167D01*
X168224200Y-108779174D01*
X168224200Y-95370650D01*
X168224200Y-94157800D01*
X168224200Y-94056200D01*
X168224200Y-92843350D01*
X168141650Y-92760800D01*
X167324681Y-92760800D01*
X167193319Y-92760800D01*
X167071957Y-92811070D01*
X166979070Y-92903957D01*
X166928800Y-93025319D01*
X166928800Y-93973650D01*
X167011350Y-94056200D01*
X168224200Y-94056200D01*
X168224200Y-94157800D01*
X167011350Y-94157800D01*
X166928800Y-94240350D01*
X166928800Y-95188681D01*
X166979070Y-95310043D01*
X167071957Y-95402930D01*
X167193319Y-95453200D01*
X167324681Y-95453200D01*
X168141650Y-95453200D01*
X168224200Y-95370650D01*
X168224200Y-108779174D01*
X168159869Y-108714843D01*
X168159869Y-102415600D01*
X168159869Y-100415600D01*
X168153400Y-100382258D01*
X168153400Y-98481281D01*
X168153400Y-97548950D01*
X168153400Y-97282250D01*
X168153400Y-96349919D01*
X168103130Y-96228557D01*
X168010243Y-96135670D01*
X167888881Y-96085400D01*
X167757519Y-96085400D01*
X166706550Y-96085400D01*
X166624000Y-96167950D01*
X166624000Y-97364800D01*
X168070850Y-97364800D01*
X168153400Y-97282250D01*
X168153400Y-97548950D01*
X168070850Y-97466400D01*
X166624000Y-97466400D01*
X166624000Y-98663250D01*
X166706550Y-98745800D01*
X167757519Y-98745800D01*
X167888881Y-98745800D01*
X168010243Y-98695530D01*
X168103130Y-98602643D01*
X168153400Y-98481281D01*
X168153400Y-100382258D01*
X168135441Y-100289696D01*
X168062750Y-100179038D01*
X167953013Y-100104964D01*
X167823200Y-100078931D01*
X166522400Y-100078931D01*
X166522400Y-98663250D01*
X166522400Y-97466400D01*
X166522400Y-97364800D01*
X166522400Y-96167950D01*
X166439850Y-96085400D01*
X165410320Y-96085400D01*
X165410320Y-94082539D01*
X165139827Y-93406606D01*
X165114863Y-93369243D01*
X164872444Y-93199898D01*
X164800602Y-93271740D01*
X164800602Y-93128056D01*
X164631257Y-92885637D01*
X163962033Y-92598946D01*
X163234039Y-92590180D01*
X162558106Y-92860673D01*
X162520743Y-92885637D01*
X162351398Y-93128056D01*
X163576000Y-94352658D01*
X164800602Y-93128056D01*
X164800602Y-93271740D01*
X163647842Y-94424500D01*
X164872444Y-95649102D01*
X165114863Y-95479757D01*
X165401554Y-94810533D01*
X165410320Y-94082539D01*
X165410320Y-96085400D01*
X165388881Y-96085400D01*
X165257519Y-96085400D01*
X165136157Y-96135670D01*
X165043270Y-96228557D01*
X164993000Y-96349919D01*
X164993000Y-97282250D01*
X165075550Y-97364800D01*
X166522400Y-97364800D01*
X166522400Y-97466400D01*
X165075550Y-97466400D01*
X164993000Y-97548950D01*
X164993000Y-98481281D01*
X165043270Y-98602643D01*
X165136157Y-98695530D01*
X165257519Y-98745800D01*
X165388881Y-98745800D01*
X166439850Y-98745800D01*
X166522400Y-98663250D01*
X166522400Y-100078931D01*
X165323200Y-100078931D01*
X165197296Y-100103359D01*
X165086638Y-100176050D01*
X165012564Y-100285787D01*
X164986531Y-100415600D01*
X164986531Y-102415600D01*
X165010959Y-102541504D01*
X165083650Y-102652162D01*
X165193387Y-102726236D01*
X165323200Y-102752269D01*
X165938200Y-102752269D01*
X165938200Y-103581200D01*
X165950888Y-103644988D01*
X165950783Y-103765301D01*
X166053041Y-104012783D01*
X166242222Y-104202294D01*
X166489525Y-104304983D01*
X166757301Y-104305217D01*
X167004783Y-104202959D01*
X167194294Y-104013778D01*
X167296983Y-103766475D01*
X167297217Y-103498699D01*
X167208200Y-103283262D01*
X167208200Y-102752269D01*
X167823200Y-102752269D01*
X167949104Y-102727841D01*
X168059762Y-102655150D01*
X168133836Y-102545413D01*
X168159869Y-102415600D01*
X168159869Y-108714843D01*
X166946013Y-107500987D01*
X166740004Y-107363336D01*
X166497000Y-107315000D01*
X166063469Y-107315000D01*
X166063469Y-107300000D01*
X166039041Y-107174096D01*
X165966350Y-107063438D01*
X165856613Y-106989364D01*
X165726800Y-106963331D01*
X164800602Y-106963331D01*
X164800602Y-95720944D01*
X163576000Y-94496342D01*
X163504158Y-94568184D01*
X163504158Y-94424500D01*
X162279556Y-93199898D01*
X162037137Y-93369243D01*
X161750446Y-94038467D01*
X161741680Y-94766461D01*
X162012173Y-95442394D01*
X162037137Y-95479757D01*
X162279556Y-95649102D01*
X163504158Y-94424500D01*
X163504158Y-94568184D01*
X162351398Y-95720944D01*
X162520743Y-95963363D01*
X163189967Y-96250054D01*
X163917961Y-96258820D01*
X164593894Y-95988327D01*
X164631257Y-95963363D01*
X164800602Y-95720944D01*
X164800602Y-106963331D01*
X164226800Y-106963331D01*
X164100896Y-106987759D01*
X163990238Y-107060450D01*
X163916164Y-107170187D01*
X163890131Y-107300000D01*
X163890131Y-108600000D01*
X163914559Y-108725904D01*
X163987250Y-108836562D01*
X164096987Y-108910636D01*
X164226800Y-108936669D01*
X165726800Y-108936669D01*
X165852704Y-108912241D01*
X165963362Y-108839550D01*
X166037436Y-108729813D01*
X166063469Y-108600000D01*
X166063469Y-108585000D01*
X166233974Y-108585000D01*
X167825987Y-110177013D01*
X168031996Y-110314664D01*
X168275000Y-110363000D01*
X168370298Y-110363000D01*
X168438900Y-110431721D01*
X168744063Y-110558435D01*
X169074488Y-110558724D01*
X169379871Y-110432542D01*
X169613721Y-110199100D01*
X169740435Y-109893937D01*
X169740724Y-109563512D01*
X169740724Y-110280816D01*
X169710129Y-110293458D01*
X169476279Y-110526900D01*
X169349565Y-110832063D01*
X169349276Y-111162488D01*
X169392902Y-111268071D01*
X169019787Y-111641187D01*
X168882136Y-111847196D01*
X168833800Y-112090200D01*
X168833800Y-112777731D01*
X168818800Y-112777731D01*
X168692896Y-112802159D01*
X168582238Y-112874850D01*
X168508164Y-112984587D01*
X168482131Y-113114400D01*
X168482131Y-114614400D01*
X168506559Y-114740304D01*
X168579250Y-114850962D01*
X168688987Y-114925036D01*
X168818800Y-114951069D01*
X170118800Y-114951069D01*
X170244704Y-114926641D01*
X170355362Y-114853950D01*
X170429436Y-114744213D01*
X170455469Y-114614400D01*
X170455469Y-113114400D01*
X170431041Y-112988496D01*
X170358350Y-112877838D01*
X170248613Y-112803764D01*
X170118800Y-112777731D01*
X170103800Y-112777731D01*
X170103800Y-112353226D01*
X170629013Y-111828013D01*
X170766664Y-111622004D01*
X170775611Y-111577020D01*
X170883721Y-111469100D01*
X171010435Y-111163937D01*
X171010724Y-110833512D01*
X171010724Y-115947366D01*
X170920400Y-115929400D01*
X170455469Y-115929400D01*
X170455469Y-115814400D01*
X170431041Y-115688496D01*
X170358350Y-115577838D01*
X170248613Y-115503764D01*
X170118800Y-115477731D01*
X168818800Y-115477731D01*
X168692896Y-115502159D01*
X168582238Y-115574850D01*
X168508164Y-115684587D01*
X168482131Y-115814400D01*
X168482131Y-117314400D01*
X168506559Y-117440304D01*
X168579250Y-117550962D01*
X168688987Y-117625036D01*
X168818800Y-117651069D01*
X169011600Y-117651069D01*
X169011600Y-118060931D01*
X168818800Y-118060931D01*
X168692896Y-118085359D01*
X168582238Y-118158050D01*
X168508164Y-118267787D01*
X168482131Y-118397600D01*
X168482131Y-119897600D01*
X168506559Y-120023504D01*
X168579250Y-120134162D01*
X168688987Y-120208236D01*
X168818800Y-120234269D01*
X170118800Y-120234269D01*
X170244704Y-120209841D01*
X170355362Y-120137150D01*
X170429436Y-120027413D01*
X170455469Y-119897600D01*
X170455469Y-118397600D01*
X170431041Y-118271696D01*
X170358350Y-118161038D01*
X170248613Y-118086964D01*
X170118800Y-118060931D01*
X169926000Y-118060931D01*
X169926000Y-117651069D01*
X170118800Y-117651069D01*
X170244704Y-117626641D01*
X170355362Y-117553950D01*
X170429436Y-117444213D01*
X170455469Y-117314400D01*
X170455469Y-117199400D01*
X170657374Y-117199400D01*
X170746987Y-117289013D01*
X170952996Y-117426664D01*
X171196000Y-117475000D01*
X171923331Y-117475000D01*
X171923331Y-118090000D01*
X171947759Y-118215904D01*
X172020450Y-118326562D01*
X172130187Y-118400636D01*
X172260000Y-118426669D01*
X174260000Y-118426669D01*
X174385904Y-118402241D01*
X174496562Y-118329550D01*
X174570636Y-118219813D01*
X174596669Y-118090000D01*
X174596669Y-123571800D01*
X171932717Y-123571800D01*
X171932717Y-121723199D01*
X171830459Y-121475717D01*
X171641278Y-121286206D01*
X171393975Y-121183517D01*
X171126199Y-121183283D01*
X171055246Y-121212600D01*
X170455469Y-121212600D01*
X170455469Y-121097600D01*
X170431041Y-120971696D01*
X170358350Y-120861038D01*
X170248613Y-120786964D01*
X170118800Y-120760931D01*
X168818800Y-120760931D01*
X168692896Y-120785359D01*
X168582238Y-120858050D01*
X168508164Y-120967787D01*
X168482131Y-121097600D01*
X168482131Y-122597600D01*
X168506559Y-122723504D01*
X168579250Y-122834162D01*
X168688987Y-122908236D01*
X168818800Y-122934269D01*
X170118800Y-122934269D01*
X170244704Y-122909841D01*
X170355362Y-122837150D01*
X170429436Y-122727413D01*
X170455469Y-122597600D01*
X170455469Y-122482600D01*
X171012118Y-122482600D01*
X171125025Y-122529483D01*
X171392801Y-122529717D01*
X171640283Y-122427459D01*
X171829794Y-122238278D01*
X171932483Y-121990975D01*
X171932717Y-121723199D01*
X171932717Y-123571800D01*
X166785169Y-123571800D01*
X166785169Y-116654000D01*
X166785169Y-115154000D01*
X166785169Y-113954000D01*
X166785169Y-112454000D01*
X166760741Y-112328096D01*
X166688050Y-112217438D01*
X166578313Y-112143364D01*
X166448500Y-112117331D01*
X165148500Y-112117331D01*
X165022596Y-112141759D01*
X164911938Y-112214450D01*
X164837864Y-112324187D01*
X164811831Y-112454000D01*
X164811831Y-112569000D01*
X163483669Y-112569000D01*
X163483669Y-112542000D01*
X163459241Y-112416096D01*
X163386550Y-112305438D01*
X163276813Y-112231364D01*
X163147000Y-112205331D01*
X162782000Y-112205331D01*
X162782000Y-108936669D01*
X163026800Y-108936669D01*
X163152704Y-108912241D01*
X163263362Y-108839550D01*
X163337436Y-108729813D01*
X163363469Y-108600000D01*
X163363469Y-107300000D01*
X163339041Y-107174096D01*
X163266350Y-107063438D01*
X163156613Y-106989364D01*
X163026800Y-106963331D01*
X162890200Y-106963331D01*
X162890200Y-106322669D01*
X162905200Y-106322669D01*
X163031104Y-106298241D01*
X163141762Y-106225550D01*
X163215836Y-106115813D01*
X163241869Y-105986000D01*
X163241869Y-104486000D01*
X163235400Y-104452658D01*
X163235400Y-103351681D01*
X163235400Y-102669350D01*
X163235400Y-102402650D01*
X163235400Y-101720319D01*
X163185130Y-101598957D01*
X163092243Y-101506070D01*
X162970881Y-101455800D01*
X162839519Y-101455800D01*
X162388550Y-101455800D01*
X162306000Y-101538350D01*
X162306000Y-102485200D01*
X163152850Y-102485200D01*
X163235400Y-102402650D01*
X163235400Y-102669350D01*
X163152850Y-102586800D01*
X162306000Y-102586800D01*
X162306000Y-103533650D01*
X162388550Y-103616200D01*
X162839519Y-103616200D01*
X162970881Y-103616200D01*
X163092243Y-103565930D01*
X163185130Y-103473043D01*
X163235400Y-103351681D01*
X163235400Y-104452658D01*
X163217441Y-104360096D01*
X163144750Y-104249438D01*
X163035013Y-104175364D01*
X162905200Y-104149331D01*
X162204400Y-104149331D01*
X162204400Y-103533650D01*
X162204400Y-102586800D01*
X162204400Y-102485200D01*
X162204400Y-101538350D01*
X162121850Y-101455800D01*
X161670881Y-101455800D01*
X161539519Y-101455800D01*
X161418157Y-101506070D01*
X161325270Y-101598957D01*
X161275000Y-101720319D01*
X161275000Y-102402650D01*
X161357550Y-102485200D01*
X162204400Y-102485200D01*
X162204400Y-102586800D01*
X161357550Y-102586800D01*
X161275000Y-102669350D01*
X161275000Y-103351681D01*
X161325270Y-103473043D01*
X161418157Y-103565930D01*
X161539519Y-103616200D01*
X161670881Y-103616200D01*
X162121850Y-103616200D01*
X162204400Y-103533650D01*
X162204400Y-104149331D01*
X161605200Y-104149331D01*
X161479296Y-104173759D01*
X161368638Y-104246450D01*
X161294564Y-104356187D01*
X161268531Y-104486000D01*
X161268531Y-105986000D01*
X161292959Y-106111904D01*
X161365650Y-106222562D01*
X161475387Y-106296636D01*
X161605200Y-106322669D01*
X161620200Y-106322669D01*
X161620200Y-106963331D01*
X161526800Y-106963331D01*
X161400896Y-106987759D01*
X161290238Y-107060450D01*
X161216164Y-107170187D01*
X161190131Y-107300000D01*
X161190131Y-108600000D01*
X161214559Y-108725904D01*
X161287250Y-108836562D01*
X161396987Y-108910636D01*
X161512000Y-108933700D01*
X161512000Y-112205331D01*
X161147000Y-112205331D01*
X161021096Y-112229759D01*
X160910438Y-112302450D01*
X160836364Y-112412187D01*
X160810331Y-112542000D01*
X160810331Y-115042000D01*
X160834759Y-115167904D01*
X160907450Y-115278562D01*
X161017187Y-115352636D01*
X161147000Y-115378669D01*
X163147000Y-115378669D01*
X163272904Y-115354241D01*
X163383562Y-115281550D01*
X163457636Y-115171813D01*
X163483669Y-115042000D01*
X163483669Y-113839000D01*
X164811831Y-113839000D01*
X164811831Y-113954000D01*
X164836259Y-114079904D01*
X164908950Y-114190562D01*
X165018687Y-114264636D01*
X165148500Y-114290669D01*
X166448500Y-114290669D01*
X166574404Y-114266241D01*
X166685062Y-114193550D01*
X166759136Y-114083813D01*
X166785169Y-113954000D01*
X166785169Y-115154000D01*
X166760741Y-115028096D01*
X166688050Y-114917438D01*
X166578313Y-114843364D01*
X166448500Y-114817331D01*
X165148500Y-114817331D01*
X165022596Y-114841759D01*
X164911938Y-114914450D01*
X164837864Y-115024187D01*
X164811831Y-115154000D01*
X164811831Y-116654000D01*
X164836259Y-116779904D01*
X164908950Y-116890562D01*
X165018687Y-116964636D01*
X165148500Y-116990669D01*
X165163500Y-116990669D01*
X165163500Y-117540626D01*
X165062017Y-117785025D01*
X165061783Y-118052801D01*
X165164041Y-118300283D01*
X165353222Y-118489794D01*
X165600525Y-118592483D01*
X165868301Y-118592717D01*
X166115783Y-118490459D01*
X166305294Y-118301278D01*
X166407983Y-118053975D01*
X166408044Y-117983978D01*
X166408044Y-117983976D01*
X166433500Y-117856000D01*
X166433501Y-117856000D01*
X166433500Y-117855994D01*
X166433500Y-116990669D01*
X166448500Y-116990669D01*
X166574404Y-116966241D01*
X166685062Y-116893550D01*
X166759136Y-116783813D01*
X166785169Y-116654000D01*
X166785169Y-123571800D01*
X165660387Y-123571800D01*
X165660387Y-121240074D01*
X165382362Y-120567203D01*
X164868005Y-120051947D01*
X164465000Y-119884605D01*
X164465000Y-119507000D01*
X164416664Y-119263996D01*
X164279013Y-119057987D01*
X161548513Y-116327487D01*
X161342504Y-116189836D01*
X161099500Y-116141500D01*
X160520974Y-116141500D01*
X160520974Y-94619558D01*
X160280910Y-94038558D01*
X159836780Y-93593653D01*
X159256200Y-93352575D01*
X158627558Y-93352026D01*
X158046558Y-93592090D01*
X157601653Y-94036220D01*
X157360575Y-94616800D01*
X157360026Y-95245442D01*
X157600090Y-95826442D01*
X158044220Y-96271347D01*
X158624800Y-96512425D01*
X159253442Y-96512974D01*
X159834442Y-96272910D01*
X160279347Y-95828780D01*
X160520425Y-95248200D01*
X160520974Y-94619558D01*
X160520974Y-116141500D01*
X159521026Y-116141500D01*
X158782000Y-115402474D01*
X158782000Y-115378669D01*
X159147000Y-115378669D01*
X159272904Y-115354241D01*
X159383562Y-115281550D01*
X159457636Y-115171813D01*
X159483669Y-115042000D01*
X159483669Y-112542000D01*
X159459241Y-112416096D01*
X159386550Y-112305438D01*
X159276813Y-112231364D01*
X159194500Y-112214856D01*
X159194500Y-110826669D01*
X159575500Y-110826669D01*
X159701404Y-110802241D01*
X159812062Y-110729550D01*
X159886136Y-110619813D01*
X159912169Y-110490000D01*
X159912169Y-108458000D01*
X159887741Y-108332096D01*
X159815050Y-108221438D01*
X159705313Y-108147364D01*
X159575500Y-108121331D01*
X159185444Y-108121331D01*
X159537781Y-107885907D01*
X159829601Y-107449168D01*
X159932074Y-106934000D01*
X159829601Y-106418832D01*
X159537781Y-105982093D01*
X159101042Y-105690273D01*
X158585874Y-105587800D01*
X158533126Y-105587800D01*
X158017958Y-105690273D01*
X157581219Y-105982093D01*
X157289399Y-106418832D01*
X157186926Y-106934000D01*
X157289399Y-107449168D01*
X157581219Y-107885907D01*
X157933555Y-108121331D01*
X157543500Y-108121331D01*
X157417596Y-108145759D01*
X157306938Y-108218450D01*
X157232864Y-108328187D01*
X157206831Y-108458000D01*
X157206831Y-110490000D01*
X157231259Y-110615904D01*
X157303950Y-110726562D01*
X157413687Y-110800636D01*
X157543500Y-110826669D01*
X157924500Y-110826669D01*
X157924500Y-112205331D01*
X157147000Y-112205331D01*
X157021096Y-112229759D01*
X156910438Y-112302450D01*
X156836364Y-112412187D01*
X156810331Y-112542000D01*
X156810331Y-115042000D01*
X156834759Y-115167904D01*
X156907450Y-115278562D01*
X157017187Y-115352636D01*
X157147000Y-115378669D01*
X157512000Y-115378669D01*
X157512000Y-115665500D01*
X157560336Y-115908504D01*
X157697987Y-116114513D01*
X158808987Y-117225513D01*
X159014995Y-117363164D01*
X159014996Y-117363164D01*
X159258000Y-117411500D01*
X160836474Y-117411500D01*
X163195000Y-119770026D01*
X163195000Y-119884738D01*
X162794703Y-120050138D01*
X162279447Y-120564495D01*
X162000249Y-121236880D01*
X161999613Y-121964926D01*
X162277638Y-122637797D01*
X162791995Y-123153053D01*
X163464380Y-123432251D01*
X164192426Y-123432887D01*
X164865297Y-123154862D01*
X165380553Y-122640505D01*
X165659751Y-121968120D01*
X165660387Y-121240074D01*
X165660387Y-123571800D01*
X160584474Y-123571800D01*
X160584474Y-120591058D01*
X160344410Y-120010058D01*
X159900280Y-119565153D01*
X159319700Y-119324075D01*
X158691058Y-119323526D01*
X158110058Y-119563590D01*
X157665153Y-120007720D01*
X157424075Y-120588300D01*
X157423526Y-121216942D01*
X157663590Y-121797942D01*
X158107720Y-122242847D01*
X158688300Y-122483925D01*
X159316942Y-122484474D01*
X159897942Y-122244410D01*
X160342847Y-121800280D01*
X160583925Y-121219700D01*
X160584474Y-120591058D01*
X160584474Y-123571800D01*
X156336200Y-123571800D01*
X156336200Y-92328200D01*
X183007800Y-92328200D01*
X183007800Y-123571800D01*
X183007800Y-123571800D01*
G37*
X183007800Y-123571800D02*
X182047474Y-123571800D01*
X182047474Y-120718058D01*
X181983974Y-120564376D01*
X181983974Y-94365558D01*
X181743910Y-93784558D01*
X181299780Y-93339653D01*
X180719200Y-93098575D01*
X180090558Y-93098026D01*
X179509558Y-93338090D01*
X179064653Y-93782220D01*
X178823575Y-94362800D01*
X178823026Y-94991442D01*
X179063090Y-95572442D01*
X179507220Y-96017347D01*
X180087800Y-96258425D01*
X180716442Y-96258974D01*
X181297442Y-96018910D01*
X181742347Y-95574780D01*
X181983425Y-94994200D01*
X181983974Y-94365558D01*
X181983974Y-120564376D01*
X181807410Y-120137058D01*
X181363280Y-119692153D01*
X180899774Y-119499688D01*
X180899774Y-111709200D01*
X180797301Y-111194032D01*
X180505481Y-110757293D01*
X180153144Y-110521869D01*
X180543200Y-110521869D01*
X180669104Y-110497441D01*
X180779762Y-110424750D01*
X180853836Y-110315013D01*
X180879869Y-110185200D01*
X180879869Y-108153200D01*
X180855441Y-108027296D01*
X180782750Y-107916638D01*
X180673013Y-107842564D01*
X180543200Y-107816531D01*
X180181000Y-107816531D01*
X180181000Y-103237469D01*
X180546000Y-103237469D01*
X180671904Y-103213041D01*
X180782562Y-103140350D01*
X180856636Y-103030613D01*
X180882669Y-102900800D01*
X180882669Y-100400800D01*
X180858241Y-100274896D01*
X180785550Y-100164238D01*
X180675813Y-100090164D01*
X180546000Y-100064131D01*
X180181000Y-100064131D01*
X180181000Y-99091500D01*
X180132664Y-98848496D01*
X179995013Y-98642487D01*
X178693513Y-97340987D01*
X178487504Y-97203336D01*
X178244500Y-97155000D01*
X177739761Y-97155000D01*
X177574362Y-96754703D01*
X177060005Y-96239447D01*
X176387620Y-95960249D01*
X175659574Y-95959613D01*
X174986703Y-96237638D01*
X174471447Y-96751995D01*
X174192249Y-97424380D01*
X174191613Y-98152426D01*
X174469638Y-98825297D01*
X174983995Y-99340553D01*
X175656380Y-99619751D01*
X176384426Y-99620387D01*
X177057297Y-99342362D01*
X177572553Y-98828005D01*
X177739894Y-98425000D01*
X177981473Y-98425000D01*
X178911000Y-99354526D01*
X178911000Y-100064131D01*
X178546000Y-100064131D01*
X178420096Y-100088559D01*
X178309438Y-100161250D01*
X178235364Y-100270987D01*
X178209331Y-100400800D01*
X178209331Y-102900800D01*
X178233759Y-103026704D01*
X178306450Y-103137362D01*
X178416187Y-103211436D01*
X178546000Y-103237469D01*
X178911000Y-103237469D01*
X178911000Y-107816531D01*
X178511200Y-107816531D01*
X178385296Y-107840959D01*
X178274638Y-107913650D01*
X178200564Y-108023387D01*
X178174531Y-108153200D01*
X178174531Y-110185200D01*
X178198959Y-110311104D01*
X178271650Y-110421762D01*
X178381387Y-110495836D01*
X178511200Y-110521869D01*
X178901255Y-110521869D01*
X178548919Y-110757293D01*
X178257099Y-111194032D01*
X178154626Y-111709200D01*
X178257099Y-112224368D01*
X178548919Y-112661107D01*
X178892200Y-112890480D01*
X178892200Y-115357774D01*
X178596669Y-115653305D01*
X178596669Y-115590000D01*
X178572241Y-115464096D01*
X178499550Y-115353438D01*
X178389813Y-115279364D01*
X178260000Y-115253331D01*
X176882669Y-115253331D01*
X176882669Y-102900800D01*
X176882669Y-100400800D01*
X176858241Y-100274896D01*
X176785550Y-100164238D01*
X176675813Y-100090164D01*
X176546000Y-100064131D01*
X174546000Y-100064131D01*
X174420096Y-100088559D01*
X174309438Y-100161250D01*
X174235364Y-100270987D01*
X174209331Y-100400800D01*
X174209331Y-101015800D01*
X172161200Y-101015800D01*
X172161200Y-94133374D01*
X172161200Y-94080626D01*
X172058727Y-93565458D01*
X171766907Y-93128719D01*
X171330168Y-92836899D01*
X170815000Y-92734426D01*
X170299832Y-92836899D01*
X169863093Y-93128719D01*
X169621200Y-93490737D01*
X169621200Y-93025319D01*
X169570930Y-92903957D01*
X169478043Y-92811070D01*
X169356681Y-92760800D01*
X169225319Y-92760800D01*
X168408350Y-92760800D01*
X168325800Y-92843350D01*
X168325800Y-94056200D01*
X168345800Y-94056200D01*
X168345800Y-94157800D01*
X168325800Y-94157800D01*
X168325800Y-95370650D01*
X168408350Y-95453200D01*
X169225319Y-95453200D01*
X169356681Y-95453200D01*
X169478043Y-95402930D01*
X169570930Y-95310043D01*
X169621200Y-95188681D01*
X169621200Y-94723262D01*
X169863093Y-95085281D01*
X170299832Y-95377101D01*
X170815000Y-95479574D01*
X171330168Y-95377101D01*
X171766907Y-95085281D01*
X172058727Y-94648542D01*
X172161200Y-94133374D01*
X172161200Y-101015800D01*
X172085054Y-101015800D01*
X172105836Y-100985013D01*
X172131869Y-100855200D01*
X172131869Y-99355200D01*
X172125400Y-99321858D01*
X172125400Y-98220881D01*
X172125400Y-97538550D01*
X172125400Y-97271850D01*
X172125400Y-96589519D01*
X172075130Y-96468157D01*
X171982243Y-96375270D01*
X171860881Y-96325000D01*
X171729519Y-96325000D01*
X171278550Y-96325000D01*
X171196000Y-96407550D01*
X171196000Y-97354400D01*
X172042850Y-97354400D01*
X172125400Y-97271850D01*
X172125400Y-97538550D01*
X172042850Y-97456000D01*
X171196000Y-97456000D01*
X171196000Y-98402850D01*
X171278550Y-98485400D01*
X171729519Y-98485400D01*
X171860881Y-98485400D01*
X171982243Y-98435130D01*
X172075130Y-98342243D01*
X172125400Y-98220881D01*
X172125400Y-99321858D01*
X172107441Y-99229296D01*
X172034750Y-99118638D01*
X171925013Y-99044564D01*
X171795200Y-99018531D01*
X171094400Y-99018531D01*
X171094400Y-98402850D01*
X171094400Y-97456000D01*
X171094400Y-97354400D01*
X171094400Y-96407550D01*
X171011850Y-96325000D01*
X170560881Y-96325000D01*
X170429519Y-96325000D01*
X170308157Y-96375270D01*
X170215270Y-96468157D01*
X170165000Y-96589519D01*
X170165000Y-97271850D01*
X170247550Y-97354400D01*
X171094400Y-97354400D01*
X171094400Y-97456000D01*
X170247550Y-97456000D01*
X170165000Y-97538550D01*
X170165000Y-98220881D01*
X170215270Y-98342243D01*
X170308157Y-98435130D01*
X170429519Y-98485400D01*
X170560881Y-98485400D01*
X171011850Y-98485400D01*
X171094400Y-98402850D01*
X171094400Y-99018531D01*
X170495200Y-99018531D01*
X170369296Y-99042959D01*
X170258638Y-99115650D01*
X170184564Y-99225387D01*
X170158531Y-99355200D01*
X170158531Y-100855200D01*
X170182959Y-100981104D01*
X170255650Y-101091762D01*
X170365387Y-101165836D01*
X170495200Y-101191869D01*
X170510200Y-101191869D01*
X170510200Y-101600000D01*
X170510200Y-101650800D01*
X170510200Y-101710276D01*
X170420096Y-101727759D01*
X170309438Y-101800450D01*
X170235364Y-101910187D01*
X170209331Y-102040000D01*
X170209331Y-103540000D01*
X170233759Y-103665904D01*
X170306450Y-103776562D01*
X170416187Y-103850636D01*
X170546000Y-103876669D01*
X171846000Y-103876669D01*
X171971904Y-103852241D01*
X172082562Y-103779550D01*
X172156636Y-103669813D01*
X172182669Y-103540000D01*
X172182669Y-102285800D01*
X174209331Y-102285800D01*
X174209331Y-102900800D01*
X174233759Y-103026704D01*
X174306450Y-103137362D01*
X174416187Y-103211436D01*
X174546000Y-103237469D01*
X176546000Y-103237469D01*
X176671904Y-103213041D01*
X176782562Y-103140350D01*
X176856636Y-103030613D01*
X176882669Y-102900800D01*
X176882669Y-115253331D01*
X176260000Y-115253331D01*
X176134096Y-115277759D01*
X176023438Y-115350450D01*
X175949364Y-115460187D01*
X175923331Y-115590000D01*
X175923331Y-118090000D01*
X175947759Y-118215904D01*
X176020450Y-118326562D01*
X176130187Y-118400636D01*
X176260000Y-118426669D01*
X178260000Y-118426669D01*
X178385904Y-118402241D01*
X178496562Y-118329550D01*
X178570636Y-118219813D01*
X178596669Y-118090000D01*
X178596669Y-117396151D01*
X178757013Y-117289013D01*
X179976213Y-116069813D01*
X180113864Y-115863804D01*
X180162200Y-115620800D01*
X180162200Y-112890480D01*
X180505481Y-112661107D01*
X180797301Y-112224368D01*
X180899774Y-111709200D01*
X180899774Y-119499688D01*
X180782700Y-119451075D01*
X180154058Y-119450526D01*
X179573058Y-119690590D01*
X179128153Y-120134720D01*
X178887075Y-120715300D01*
X178886526Y-121343942D01*
X179126590Y-121924942D01*
X179570720Y-122369847D01*
X180151300Y-122610925D01*
X180779942Y-122611474D01*
X181360942Y-122371410D01*
X181805847Y-121927280D01*
X182046925Y-121346700D01*
X182047474Y-120718058D01*
X182047474Y-123571800D01*
X174596669Y-123571800D01*
X174596669Y-118090000D01*
X174596669Y-115590000D01*
X174572241Y-115464096D01*
X174499550Y-115353438D01*
X174389813Y-115279364D01*
X174260000Y-115253331D01*
X172260000Y-115253331D01*
X172182669Y-115268334D01*
X172182669Y-106240000D01*
X172182669Y-104740000D01*
X172158241Y-104614096D01*
X172085550Y-104503438D01*
X171975813Y-104429364D01*
X171846000Y-104403331D01*
X170546000Y-104403331D01*
X170420096Y-104427759D01*
X170309438Y-104500450D01*
X170235364Y-104610187D01*
X170209331Y-104740000D01*
X170209331Y-106240000D01*
X170233759Y-106365904D01*
X170306450Y-106476562D01*
X170416187Y-106550636D01*
X170546000Y-106576669D01*
X170561000Y-106576669D01*
X170561000Y-106797974D01*
X169730987Y-107627987D01*
X169593336Y-107833996D01*
X169584388Y-107878979D01*
X169476279Y-107986900D01*
X169349565Y-108292063D01*
X169349276Y-108622488D01*
X169475458Y-108927871D01*
X169708900Y-109161721D01*
X170014063Y-109288435D01*
X170344488Y-109288724D01*
X170649871Y-109162542D01*
X170883721Y-108929100D01*
X171010435Y-108623937D01*
X171010724Y-108293512D01*
X170967097Y-108187928D01*
X171645013Y-107510013D01*
X171782664Y-107304004D01*
X171831000Y-107061000D01*
X171831000Y-106576669D01*
X171846000Y-106576669D01*
X171971904Y-106552241D01*
X172082562Y-106479550D01*
X172156636Y-106369813D01*
X172182669Y-106240000D01*
X172182669Y-115268334D01*
X172134096Y-115277759D01*
X172023438Y-115350450D01*
X171949364Y-115460187D01*
X171923331Y-115590000D01*
X171923331Y-116205000D01*
X171459026Y-116205000D01*
X171369413Y-116115387D01*
X171163404Y-115977736D01*
X171010724Y-115947366D01*
X171010724Y-110833512D01*
X170884542Y-110528129D01*
X170651100Y-110294279D01*
X170345937Y-110167565D01*
X170015512Y-110167276D01*
X169740724Y-110280816D01*
X169740724Y-109563512D01*
X169614542Y-109258129D01*
X169381100Y-109024279D01*
X169075937Y-108897565D01*
X168745512Y-108897276D01*
X168460193Y-109015167D01*
X168224200Y-108779174D01*
X168224200Y-95370650D01*
X168224200Y-94157800D01*
X168224200Y-94056200D01*
X168224200Y-92843350D01*
X168141650Y-92760800D01*
X167324681Y-92760800D01*
X167193319Y-92760800D01*
X167071957Y-92811070D01*
X166979070Y-92903957D01*
X166928800Y-93025319D01*
X166928800Y-93973650D01*
X167011350Y-94056200D01*
X168224200Y-94056200D01*
X168224200Y-94157800D01*
X167011350Y-94157800D01*
X166928800Y-94240350D01*
X166928800Y-95188681D01*
X166979070Y-95310043D01*
X167071957Y-95402930D01*
X167193319Y-95453200D01*
X167324681Y-95453200D01*
X168141650Y-95453200D01*
X168224200Y-95370650D01*
X168224200Y-108779174D01*
X168159869Y-108714843D01*
X168159869Y-102415600D01*
X168159869Y-100415600D01*
X168153400Y-100382258D01*
X168153400Y-98481281D01*
X168153400Y-97548950D01*
X168153400Y-97282250D01*
X168153400Y-96349919D01*
X168103130Y-96228557D01*
X168010243Y-96135670D01*
X167888881Y-96085400D01*
X167757519Y-96085400D01*
X166706550Y-96085400D01*
X166624000Y-96167950D01*
X166624000Y-97364800D01*
X168070850Y-97364800D01*
X168153400Y-97282250D01*
X168153400Y-97548950D01*
X168070850Y-97466400D01*
X166624000Y-97466400D01*
X166624000Y-98663250D01*
X166706550Y-98745800D01*
X167757519Y-98745800D01*
X167888881Y-98745800D01*
X168010243Y-98695530D01*
X168103130Y-98602643D01*
X168153400Y-98481281D01*
X168153400Y-100382258D01*
X168135441Y-100289696D01*
X168062750Y-100179038D01*
X167953013Y-100104964D01*
X167823200Y-100078931D01*
X166522400Y-100078931D01*
X166522400Y-98663250D01*
X166522400Y-97466400D01*
X166522400Y-97364800D01*
X166522400Y-96167950D01*
X166439850Y-96085400D01*
X165410320Y-96085400D01*
X165410320Y-94082539D01*
X165139827Y-93406606D01*
X165114863Y-93369243D01*
X164872444Y-93199898D01*
X164800602Y-93271740D01*
X164800602Y-93128056D01*
X164631257Y-92885637D01*
X163962033Y-92598946D01*
X163234039Y-92590180D01*
X162558106Y-92860673D01*
X162520743Y-92885637D01*
X162351398Y-93128056D01*
X163576000Y-94352658D01*
X164800602Y-93128056D01*
X164800602Y-93271740D01*
X163647842Y-94424500D01*
X164872444Y-95649102D01*
X165114863Y-95479757D01*
X165401554Y-94810533D01*
X165410320Y-94082539D01*
X165410320Y-96085400D01*
X165388881Y-96085400D01*
X165257519Y-96085400D01*
X165136157Y-96135670D01*
X165043270Y-96228557D01*
X164993000Y-96349919D01*
X164993000Y-97282250D01*
X165075550Y-97364800D01*
X166522400Y-97364800D01*
X166522400Y-97466400D01*
X165075550Y-97466400D01*
X164993000Y-97548950D01*
X164993000Y-98481281D01*
X165043270Y-98602643D01*
X165136157Y-98695530D01*
X165257519Y-98745800D01*
X165388881Y-98745800D01*
X166439850Y-98745800D01*
X166522400Y-98663250D01*
X166522400Y-100078931D01*
X165323200Y-100078931D01*
X165197296Y-100103359D01*
X165086638Y-100176050D01*
X165012564Y-100285787D01*
X164986531Y-100415600D01*
X164986531Y-102415600D01*
X165010959Y-102541504D01*
X165083650Y-102652162D01*
X165193387Y-102726236D01*
X165323200Y-102752269D01*
X165938200Y-102752269D01*
X165938200Y-103581200D01*
X165950888Y-103644988D01*
X165950783Y-103765301D01*
X166053041Y-104012783D01*
X166242222Y-104202294D01*
X166489525Y-104304983D01*
X166757301Y-104305217D01*
X167004783Y-104202959D01*
X167194294Y-104013778D01*
X167296983Y-103766475D01*
X167297217Y-103498699D01*
X167208200Y-103283262D01*
X167208200Y-102752269D01*
X167823200Y-102752269D01*
X167949104Y-102727841D01*
X168059762Y-102655150D01*
X168133836Y-102545413D01*
X168159869Y-102415600D01*
X168159869Y-108714843D01*
X166946013Y-107500987D01*
X166740004Y-107363336D01*
X166497000Y-107315000D01*
X166063469Y-107315000D01*
X166063469Y-107300000D01*
X166039041Y-107174096D01*
X165966350Y-107063438D01*
X165856613Y-106989364D01*
X165726800Y-106963331D01*
X164800602Y-106963331D01*
X164800602Y-95720944D01*
X163576000Y-94496342D01*
X163504158Y-94568184D01*
X163504158Y-94424500D01*
X162279556Y-93199898D01*
X162037137Y-93369243D01*
X161750446Y-94038467D01*
X161741680Y-94766461D01*
X162012173Y-95442394D01*
X162037137Y-95479757D01*
X162279556Y-95649102D01*
X163504158Y-94424500D01*
X163504158Y-94568184D01*
X162351398Y-95720944D01*
X162520743Y-95963363D01*
X163189967Y-96250054D01*
X163917961Y-96258820D01*
X164593894Y-95988327D01*
X164631257Y-95963363D01*
X164800602Y-95720944D01*
X164800602Y-106963331D01*
X164226800Y-106963331D01*
X164100896Y-106987759D01*
X163990238Y-107060450D01*
X163916164Y-107170187D01*
X163890131Y-107300000D01*
X163890131Y-108600000D01*
X163914559Y-108725904D01*
X163987250Y-108836562D01*
X164096987Y-108910636D01*
X164226800Y-108936669D01*
X165726800Y-108936669D01*
X165852704Y-108912241D01*
X165963362Y-108839550D01*
X166037436Y-108729813D01*
X166063469Y-108600000D01*
X166063469Y-108585000D01*
X166233974Y-108585000D01*
X167825987Y-110177013D01*
X168031996Y-110314664D01*
X168275000Y-110363000D01*
X168370298Y-110363000D01*
X168438900Y-110431721D01*
X168744063Y-110558435D01*
X169074488Y-110558724D01*
X169379871Y-110432542D01*
X169613721Y-110199100D01*
X169740435Y-109893937D01*
X169740724Y-109563512D01*
X169740724Y-110280816D01*
X169710129Y-110293458D01*
X169476279Y-110526900D01*
X169349565Y-110832063D01*
X169349276Y-111162488D01*
X169392902Y-111268071D01*
X169019787Y-111641187D01*
X168882136Y-111847196D01*
X168833800Y-112090200D01*
X168833800Y-112777731D01*
X168818800Y-112777731D01*
X168692896Y-112802159D01*
X168582238Y-112874850D01*
X168508164Y-112984587D01*
X168482131Y-113114400D01*
X168482131Y-114614400D01*
X168506559Y-114740304D01*
X168579250Y-114850962D01*
X168688987Y-114925036D01*
X168818800Y-114951069D01*
X170118800Y-114951069D01*
X170244704Y-114926641D01*
X170355362Y-114853950D01*
X170429436Y-114744213D01*
X170455469Y-114614400D01*
X170455469Y-113114400D01*
X170431041Y-112988496D01*
X170358350Y-112877838D01*
X170248613Y-112803764D01*
X170118800Y-112777731D01*
X170103800Y-112777731D01*
X170103800Y-112353226D01*
X170629013Y-111828013D01*
X170766664Y-111622004D01*
X170775611Y-111577020D01*
X170883721Y-111469100D01*
X171010435Y-111163937D01*
X171010724Y-110833512D01*
X171010724Y-115947366D01*
X170920400Y-115929400D01*
X170455469Y-115929400D01*
X170455469Y-115814400D01*
X170431041Y-115688496D01*
X170358350Y-115577838D01*
X170248613Y-115503764D01*
X170118800Y-115477731D01*
X168818800Y-115477731D01*
X168692896Y-115502159D01*
X168582238Y-115574850D01*
X168508164Y-115684587D01*
X168482131Y-115814400D01*
X168482131Y-117314400D01*
X168506559Y-117440304D01*
X168579250Y-117550962D01*
X168688987Y-117625036D01*
X168818800Y-117651069D01*
X169011600Y-117651069D01*
X169011600Y-118060931D01*
X168818800Y-118060931D01*
X168692896Y-118085359D01*
X168582238Y-118158050D01*
X168508164Y-118267787D01*
X168482131Y-118397600D01*
X168482131Y-119897600D01*
X168506559Y-120023504D01*
X168579250Y-120134162D01*
X168688987Y-120208236D01*
X168818800Y-120234269D01*
X170118800Y-120234269D01*
X170244704Y-120209841D01*
X170355362Y-120137150D01*
X170429436Y-120027413D01*
X170455469Y-119897600D01*
X170455469Y-118397600D01*
X170431041Y-118271696D01*
X170358350Y-118161038D01*
X170248613Y-118086964D01*
X170118800Y-118060931D01*
X169926000Y-118060931D01*
X169926000Y-117651069D01*
X170118800Y-117651069D01*
X170244704Y-117626641D01*
X170355362Y-117553950D01*
X170429436Y-117444213D01*
X170455469Y-117314400D01*
X170455469Y-117199400D01*
X170657374Y-117199400D01*
X170746987Y-117289013D01*
X170952996Y-117426664D01*
X171196000Y-117475000D01*
X171923331Y-117475000D01*
X171923331Y-118090000D01*
X171947759Y-118215904D01*
X172020450Y-118326562D01*
X172130187Y-118400636D01*
X172260000Y-118426669D01*
X174260000Y-118426669D01*
X174385904Y-118402241D01*
X174496562Y-118329550D01*
X174570636Y-118219813D01*
X174596669Y-118090000D01*
X174596669Y-123571800D01*
X171932717Y-123571800D01*
X171932717Y-121723199D01*
X171830459Y-121475717D01*
X171641278Y-121286206D01*
X171393975Y-121183517D01*
X171126199Y-121183283D01*
X171055246Y-121212600D01*
X170455469Y-121212600D01*
X170455469Y-121097600D01*
X170431041Y-120971696D01*
X170358350Y-120861038D01*
X170248613Y-120786964D01*
X170118800Y-120760931D01*
X168818800Y-120760931D01*
X168692896Y-120785359D01*
X168582238Y-120858050D01*
X168508164Y-120967787D01*
X168482131Y-121097600D01*
X168482131Y-122597600D01*
X168506559Y-122723504D01*
X168579250Y-122834162D01*
X168688987Y-122908236D01*
X168818800Y-122934269D01*
X170118800Y-122934269D01*
X170244704Y-122909841D01*
X170355362Y-122837150D01*
X170429436Y-122727413D01*
X170455469Y-122597600D01*
X170455469Y-122482600D01*
X171012118Y-122482600D01*
X171125025Y-122529483D01*
X171392801Y-122529717D01*
X171640283Y-122427459D01*
X171829794Y-122238278D01*
X171932483Y-121990975D01*
X171932717Y-121723199D01*
X171932717Y-123571800D01*
X166785169Y-123571800D01*
X166785169Y-116654000D01*
X166785169Y-115154000D01*
X166785169Y-113954000D01*
X166785169Y-112454000D01*
X166760741Y-112328096D01*
X166688050Y-112217438D01*
X166578313Y-112143364D01*
X166448500Y-112117331D01*
X165148500Y-112117331D01*
X165022596Y-112141759D01*
X164911938Y-112214450D01*
X164837864Y-112324187D01*
X164811831Y-112454000D01*
X164811831Y-112569000D01*
X163483669Y-112569000D01*
X163483669Y-112542000D01*
X163459241Y-112416096D01*
X163386550Y-112305438D01*
X163276813Y-112231364D01*
X163147000Y-112205331D01*
X162782000Y-112205331D01*
X162782000Y-108936669D01*
X163026800Y-108936669D01*
X163152704Y-108912241D01*
X163263362Y-108839550D01*
X163337436Y-108729813D01*
X163363469Y-108600000D01*
X163363469Y-107300000D01*
X163339041Y-107174096D01*
X163266350Y-107063438D01*
X163156613Y-106989364D01*
X163026800Y-106963331D01*
X162890200Y-106963331D01*
X162890200Y-106322669D01*
X162905200Y-106322669D01*
X163031104Y-106298241D01*
X163141762Y-106225550D01*
X163215836Y-106115813D01*
X163241869Y-105986000D01*
X163241869Y-104486000D01*
X163235400Y-104452658D01*
X163235400Y-103351681D01*
X163235400Y-102669350D01*
X163235400Y-102402650D01*
X163235400Y-101720319D01*
X163185130Y-101598957D01*
X163092243Y-101506070D01*
X162970881Y-101455800D01*
X162839519Y-101455800D01*
X162388550Y-101455800D01*
X162306000Y-101538350D01*
X162306000Y-102485200D01*
X163152850Y-102485200D01*
X163235400Y-102402650D01*
X163235400Y-102669350D01*
X163152850Y-102586800D01*
X162306000Y-102586800D01*
X162306000Y-103533650D01*
X162388550Y-103616200D01*
X162839519Y-103616200D01*
X162970881Y-103616200D01*
X163092243Y-103565930D01*
X163185130Y-103473043D01*
X163235400Y-103351681D01*
X163235400Y-104452658D01*
X163217441Y-104360096D01*
X163144750Y-104249438D01*
X163035013Y-104175364D01*
X162905200Y-104149331D01*
X162204400Y-104149331D01*
X162204400Y-103533650D01*
X162204400Y-102586800D01*
X162204400Y-102485200D01*
X162204400Y-101538350D01*
X162121850Y-101455800D01*
X161670881Y-101455800D01*
X161539519Y-101455800D01*
X161418157Y-101506070D01*
X161325270Y-101598957D01*
X161275000Y-101720319D01*
X161275000Y-102402650D01*
X161357550Y-102485200D01*
X162204400Y-102485200D01*
X162204400Y-102586800D01*
X161357550Y-102586800D01*
X161275000Y-102669350D01*
X161275000Y-103351681D01*
X161325270Y-103473043D01*
X161418157Y-103565930D01*
X161539519Y-103616200D01*
X161670881Y-103616200D01*
X162121850Y-103616200D01*
X162204400Y-103533650D01*
X162204400Y-104149331D01*
X161605200Y-104149331D01*
X161479296Y-104173759D01*
X161368638Y-104246450D01*
X161294564Y-104356187D01*
X161268531Y-104486000D01*
X161268531Y-105986000D01*
X161292959Y-106111904D01*
X161365650Y-106222562D01*
X161475387Y-106296636D01*
X161605200Y-106322669D01*
X161620200Y-106322669D01*
X161620200Y-106963331D01*
X161526800Y-106963331D01*
X161400896Y-106987759D01*
X161290238Y-107060450D01*
X161216164Y-107170187D01*
X161190131Y-107300000D01*
X161190131Y-108600000D01*
X161214559Y-108725904D01*
X161287250Y-108836562D01*
X161396987Y-108910636D01*
X161512000Y-108933700D01*
X161512000Y-112205331D01*
X161147000Y-112205331D01*
X161021096Y-112229759D01*
X160910438Y-112302450D01*
X160836364Y-112412187D01*
X160810331Y-112542000D01*
X160810331Y-115042000D01*
X160834759Y-115167904D01*
X160907450Y-115278562D01*
X161017187Y-115352636D01*
X161147000Y-115378669D01*
X163147000Y-115378669D01*
X163272904Y-115354241D01*
X163383562Y-115281550D01*
X163457636Y-115171813D01*
X163483669Y-115042000D01*
X163483669Y-113839000D01*
X164811831Y-113839000D01*
X164811831Y-113954000D01*
X164836259Y-114079904D01*
X164908950Y-114190562D01*
X165018687Y-114264636D01*
X165148500Y-114290669D01*
X166448500Y-114290669D01*
X166574404Y-114266241D01*
X166685062Y-114193550D01*
X166759136Y-114083813D01*
X166785169Y-113954000D01*
X166785169Y-115154000D01*
X166760741Y-115028096D01*
X166688050Y-114917438D01*
X166578313Y-114843364D01*
X166448500Y-114817331D01*
X165148500Y-114817331D01*
X165022596Y-114841759D01*
X164911938Y-114914450D01*
X164837864Y-115024187D01*
X164811831Y-115154000D01*
X164811831Y-116654000D01*
X164836259Y-116779904D01*
X164908950Y-116890562D01*
X165018687Y-116964636D01*
X165148500Y-116990669D01*
X165163500Y-116990669D01*
X165163500Y-117540626D01*
X165062017Y-117785025D01*
X165061783Y-118052801D01*
X165164041Y-118300283D01*
X165353222Y-118489794D01*
X165600525Y-118592483D01*
X165868301Y-118592717D01*
X166115783Y-118490459D01*
X166305294Y-118301278D01*
X166407983Y-118053975D01*
X166408044Y-117983978D01*
X166408044Y-117983976D01*
X166433500Y-117856000D01*
X166433501Y-117856000D01*
X166433500Y-117855994D01*
X166433500Y-116990669D01*
X166448500Y-116990669D01*
X166574404Y-116966241D01*
X166685062Y-116893550D01*
X166759136Y-116783813D01*
X166785169Y-116654000D01*
X166785169Y-123571800D01*
X165660387Y-123571800D01*
X165660387Y-121240074D01*
X165382362Y-120567203D01*
X164868005Y-120051947D01*
X164465000Y-119884605D01*
X164465000Y-119507000D01*
X164416664Y-119263996D01*
X164279013Y-119057987D01*
X161548513Y-116327487D01*
X161342504Y-116189836D01*
X161099500Y-116141500D01*
X160520974Y-116141500D01*
X160520974Y-94619558D01*
X160280910Y-94038558D01*
X159836780Y-93593653D01*
X159256200Y-93352575D01*
X158627558Y-93352026D01*
X158046558Y-93592090D01*
X157601653Y-94036220D01*
X157360575Y-94616800D01*
X157360026Y-95245442D01*
X157600090Y-95826442D01*
X158044220Y-96271347D01*
X158624800Y-96512425D01*
X159253442Y-96512974D01*
X159834442Y-96272910D01*
X160279347Y-95828780D01*
X160520425Y-95248200D01*
X160520974Y-94619558D01*
X160520974Y-116141500D01*
X159521026Y-116141500D01*
X158782000Y-115402474D01*
X158782000Y-115378669D01*
X159147000Y-115378669D01*
X159272904Y-115354241D01*
X159383562Y-115281550D01*
X159457636Y-115171813D01*
X159483669Y-115042000D01*
X159483669Y-112542000D01*
X159459241Y-112416096D01*
X159386550Y-112305438D01*
X159276813Y-112231364D01*
X159194500Y-112214856D01*
X159194500Y-110826669D01*
X159575500Y-110826669D01*
X159701404Y-110802241D01*
X159812062Y-110729550D01*
X159886136Y-110619813D01*
X159912169Y-110490000D01*
X159912169Y-108458000D01*
X159887741Y-108332096D01*
X159815050Y-108221438D01*
X159705313Y-108147364D01*
X159575500Y-108121331D01*
X159185444Y-108121331D01*
X159537781Y-107885907D01*
X159829601Y-107449168D01*
X159932074Y-106934000D01*
X159829601Y-106418832D01*
X159537781Y-105982093D01*
X159101042Y-105690273D01*
X158585874Y-105587800D01*
X158533126Y-105587800D01*
X158017958Y-105690273D01*
X157581219Y-105982093D01*
X157289399Y-106418832D01*
X157186926Y-106934000D01*
X157289399Y-107449168D01*
X157581219Y-107885907D01*
X157933555Y-108121331D01*
X157543500Y-108121331D01*
X157417596Y-108145759D01*
X157306938Y-108218450D01*
X157232864Y-108328187D01*
X157206831Y-108458000D01*
X157206831Y-110490000D01*
X157231259Y-110615904D01*
X157303950Y-110726562D01*
X157413687Y-110800636D01*
X157543500Y-110826669D01*
X157924500Y-110826669D01*
X157924500Y-112205331D01*
X157147000Y-112205331D01*
X157021096Y-112229759D01*
X156910438Y-112302450D01*
X156836364Y-112412187D01*
X156810331Y-112542000D01*
X156810331Y-115042000D01*
X156834759Y-115167904D01*
X156907450Y-115278562D01*
X157017187Y-115352636D01*
X157147000Y-115378669D01*
X157512000Y-115378669D01*
X157512000Y-115665500D01*
X157560336Y-115908504D01*
X157697987Y-116114513D01*
X158808987Y-117225513D01*
X159014995Y-117363164D01*
X159014996Y-117363164D01*
X159258000Y-117411500D01*
X160836474Y-117411500D01*
X163195000Y-119770026D01*
X163195000Y-119884738D01*
X162794703Y-120050138D01*
X162279447Y-120564495D01*
X162000249Y-121236880D01*
X161999613Y-121964926D01*
X162277638Y-122637797D01*
X162791995Y-123153053D01*
X163464380Y-123432251D01*
X164192426Y-123432887D01*
X164865297Y-123154862D01*
X165380553Y-122640505D01*
X165659751Y-121968120D01*
X165660387Y-121240074D01*
X165660387Y-123571800D01*
X160584474Y-123571800D01*
X160584474Y-120591058D01*
X160344410Y-120010058D01*
X159900280Y-119565153D01*
X159319700Y-119324075D01*
X158691058Y-119323526D01*
X158110058Y-119563590D01*
X157665153Y-120007720D01*
X157424075Y-120588300D01*
X157423526Y-121216942D01*
X157663590Y-121797942D01*
X158107720Y-122242847D01*
X158688300Y-122483925D01*
X159316942Y-122484474D01*
X159897942Y-122244410D01*
X160342847Y-121800280D01*
X160583925Y-121219700D01*
X160584474Y-120591058D01*
X160584474Y-123571800D01*
X156336200Y-123571800D01*
X156336200Y-92328200D01*
X183007800Y-92328200D01*
X183007800Y-123571800D01*
M02*
