G04 #@! TF.FileFunction,Legend,Top*
%FSLAX46Y46*%
G04 Gerber Fmt 4.6, Leading zero omitted, Abs format (unit mm)*
G04 Created by KiCad (PCBNEW 0.201505220134+5676~23~ubuntu14.04.1-product) date Thu 10 Sep 2015 12:30:41 AM PDT*
%MOMM*%
G01*
G04 APERTURE LIST*
%ADD10C,0.100000*%
%ADD11C,0.300000*%
%ADD12C,0.150000*%
%ADD13C,0.101600*%
%ADD14R,2.000000X2.500000*%
%ADD15R,2.500000X2.000000*%
%ADD16R,2.032000X2.032000*%
%ADD17O,2.032000X2.032000*%
%ADD18R,1.300000X1.500000*%
%ADD19R,1.500000X1.300000*%
%ADD20C,2.999740*%
%ADD21C,1.000760*%
G04 APERTURE END LIST*
D10*
D11*
X161802071Y-100044000D02*
X163302071Y-99544000D01*
X161802071Y-99044000D01*
X163159214Y-97686857D02*
X163230643Y-97758286D01*
X163302071Y-97972572D01*
X163302071Y-98115429D01*
X163230643Y-98329714D01*
X163087786Y-98472572D01*
X162944929Y-98544000D01*
X162659214Y-98615429D01*
X162444929Y-98615429D01*
X162159214Y-98544000D01*
X162016357Y-98472572D01*
X161873500Y-98329714D01*
X161802071Y-98115429D01*
X161802071Y-97972572D01*
X161873500Y-97758286D01*
X161944929Y-97686857D01*
X163159214Y-96186857D02*
X163230643Y-96258286D01*
X163302071Y-96472572D01*
X163302071Y-96615429D01*
X163230643Y-96829714D01*
X163087786Y-96972572D01*
X162944929Y-97044000D01*
X162659214Y-97115429D01*
X162444929Y-97115429D01*
X162159214Y-97044000D01*
X162016357Y-96972572D01*
X161873500Y-96829714D01*
X161802071Y-96615429D01*
X161802071Y-96472572D01*
X161873500Y-96258286D01*
X161944929Y-96186857D01*
X162091786Y-119741071D02*
X162091786Y-118241071D01*
X162806072Y-119741071D02*
X162806072Y-118241071D01*
X163663215Y-119741071D01*
X163663215Y-118241071D01*
X173823500Y-94428571D02*
X174109214Y-94428571D01*
X174252072Y-94500000D01*
X174394929Y-94642857D01*
X174466357Y-94928571D01*
X174466357Y-95428571D01*
X174394929Y-95714286D01*
X174252072Y-95857143D01*
X174109214Y-95928571D01*
X173823500Y-95928571D01*
X173680643Y-95857143D01*
X173537786Y-95714286D01*
X173466357Y-95428571D01*
X173466357Y-94928571D01*
X173537786Y-94642857D01*
X173680643Y-94500000D01*
X173823500Y-94428571D01*
X175109215Y-94428571D02*
X175109215Y-95642857D01*
X175180643Y-95785714D01*
X175252072Y-95857143D01*
X175394929Y-95928571D01*
X175680643Y-95928571D01*
X175823501Y-95857143D01*
X175894929Y-95785714D01*
X175966358Y-95642857D01*
X175966358Y-94428571D01*
X176466358Y-94428571D02*
X177323501Y-94428571D01*
X176894930Y-95928571D02*
X176894930Y-94428571D01*
X172398572Y-113430857D02*
X172898572Y-113430857D01*
X173112858Y-114216571D02*
X172398572Y-114216571D01*
X172398572Y-112716571D01*
X173112858Y-112716571D01*
X168128143Y-106636357D02*
X168342429Y-106707786D01*
X168413857Y-106779214D01*
X168485286Y-106922071D01*
X168485286Y-107136357D01*
X168413857Y-107279214D01*
X168342429Y-107350643D01*
X168199571Y-107422071D01*
X167628143Y-107422071D01*
X167628143Y-105922071D01*
X168128143Y-105922071D01*
X168271000Y-105993500D01*
X168342429Y-106064929D01*
X168413857Y-106207786D01*
X168413857Y-106350643D01*
X168342429Y-106493500D01*
X168271000Y-106564929D01*
X168128143Y-106636357D01*
X167628143Y-106636357D01*
X173311286Y-108231714D02*
X173239857Y-108303143D01*
X173025571Y-108374571D01*
X172882714Y-108374571D01*
X172668429Y-108303143D01*
X172525571Y-108160286D01*
X172454143Y-108017429D01*
X172382714Y-107731714D01*
X172382714Y-107517429D01*
X172454143Y-107231714D01*
X172525571Y-107088857D01*
X172668429Y-106946000D01*
X172882714Y-106874571D01*
X173025571Y-106874571D01*
X173239857Y-106946000D01*
X173311286Y-107017429D01*
D12*
X159147000Y-115267000D02*
X161147000Y-115267000D01*
X161147000Y-112317000D02*
X159147000Y-112317000D01*
X174260000Y-118315000D02*
X176260000Y-118315000D01*
X176260000Y-115365000D02*
X174260000Y-115365000D01*
X165098200Y-98415600D02*
X165098200Y-100415600D01*
X168048200Y-100415600D02*
X168048200Y-98415600D01*
X176546000Y-103125800D02*
X178546000Y-103125800D01*
X178546000Y-100175800D02*
X176546000Y-100175800D01*
X157289500Y-108204000D02*
X157289500Y-105664000D01*
X157009500Y-111024000D02*
X157009500Y-109474000D01*
X157289500Y-108204000D02*
X159829500Y-108204000D01*
X160109500Y-109474000D02*
X160109500Y-111024000D01*
X160109500Y-111024000D02*
X157009500Y-111024000D01*
X159829500Y-108204000D02*
X159829500Y-105664000D01*
X159829500Y-105664000D02*
X157289500Y-105664000D01*
X169545000Y-92837000D02*
X172085000Y-92837000D01*
X166725000Y-92557000D02*
X168275000Y-92557000D01*
X169545000Y-92837000D02*
X169545000Y-95377000D01*
X168275000Y-95657000D02*
X166725000Y-95657000D01*
X166725000Y-95657000D02*
X166725000Y-92557000D01*
X169545000Y-95377000D02*
X172085000Y-95377000D01*
X172085000Y-95377000D02*
X172085000Y-92837000D01*
X180797200Y-110439200D02*
X180797200Y-112979200D01*
X181077200Y-107619200D02*
X181077200Y-109169200D01*
X180797200Y-110439200D02*
X178257200Y-110439200D01*
X177977200Y-109169200D02*
X177977200Y-107619200D01*
X177977200Y-107619200D02*
X181077200Y-107619200D01*
X178257200Y-110439200D02*
X178257200Y-112979200D01*
X178257200Y-112979200D02*
X180797200Y-112979200D01*
X161380200Y-104486000D02*
X161380200Y-103286000D01*
X163130200Y-103286000D02*
X163130200Y-104486000D01*
X164923500Y-115154000D02*
X164923500Y-113954000D01*
X166673500Y-113954000D02*
X166673500Y-115154000D01*
X163026800Y-107075000D02*
X164226800Y-107075000D01*
X164226800Y-108825000D02*
X163026800Y-108825000D01*
X170270200Y-99355200D02*
X170270200Y-98155200D01*
X172020200Y-98155200D02*
X172020200Y-99355200D01*
X172071000Y-103540000D02*
X172071000Y-104740000D01*
X170321000Y-104740000D02*
X170321000Y-103540000D01*
X170343800Y-114614400D02*
X170343800Y-115814400D01*
X168593800Y-115814400D02*
X168593800Y-114614400D01*
X168593800Y-121097600D02*
X168593800Y-119897600D01*
X170343800Y-119897600D02*
X170343800Y-121097600D01*
X171880000Y-111428000D02*
X171880000Y-108028000D01*
X171877056Y-111425056D02*
G75*
G02X167780000Y-109728000I-1697056J1697056D01*
G01*
X171877056Y-108030944D02*
G75*
G03X167780000Y-109728000I-1697056J-1697056D01*
G01*
D13*
X160754786Y-111714643D02*
X160718500Y-111750929D01*
X160609643Y-111787214D01*
X160537072Y-111787214D01*
X160428215Y-111750929D01*
X160355643Y-111678357D01*
X160319358Y-111605786D01*
X160283072Y-111460643D01*
X160283072Y-111351786D01*
X160319358Y-111206643D01*
X160355643Y-111134071D01*
X160428215Y-111061500D01*
X160537072Y-111025214D01*
X160609643Y-111025214D01*
X160718500Y-111061500D01*
X160754786Y-111097786D01*
X161480500Y-111787214D02*
X161045072Y-111787214D01*
X161262786Y-111787214D02*
X161262786Y-111025214D01*
X161190215Y-111134071D01*
X161117643Y-111206643D01*
X161045072Y-111242929D01*
X161952214Y-111025214D02*
X162024786Y-111025214D01*
X162097357Y-111061500D01*
X162133643Y-111097786D01*
X162169929Y-111170357D01*
X162206214Y-111315500D01*
X162206214Y-111496929D01*
X162169929Y-111642071D01*
X162133643Y-111714643D01*
X162097357Y-111750929D01*
X162024786Y-111787214D01*
X161952214Y-111787214D01*
X161879643Y-111750929D01*
X161843357Y-111714643D01*
X161807072Y-111642071D01*
X161770786Y-111496929D01*
X161770786Y-111315500D01*
X161807072Y-111170357D01*
X161843357Y-111097786D01*
X161879643Y-111061500D01*
X161952214Y-111025214D01*
X162931928Y-111787214D02*
X162496500Y-111787214D01*
X162714214Y-111787214D02*
X162714214Y-111025214D01*
X162641643Y-111134071D01*
X162569071Y-111206643D01*
X162496500Y-111242929D01*
X174470786Y-119334643D02*
X174434500Y-119370929D01*
X174325643Y-119407214D01*
X174253072Y-119407214D01*
X174144215Y-119370929D01*
X174071643Y-119298357D01*
X174035358Y-119225786D01*
X173999072Y-119080643D01*
X173999072Y-118971786D01*
X174035358Y-118826643D01*
X174071643Y-118754071D01*
X174144215Y-118681500D01*
X174253072Y-118645214D01*
X174325643Y-118645214D01*
X174434500Y-118681500D01*
X174470786Y-118717786D01*
X175196500Y-119407214D02*
X174761072Y-119407214D01*
X174978786Y-119407214D02*
X174978786Y-118645214D01*
X174906215Y-118754071D01*
X174833643Y-118826643D01*
X174761072Y-118862929D01*
X175668214Y-118645214D02*
X175740786Y-118645214D01*
X175813357Y-118681500D01*
X175849643Y-118717786D01*
X175885929Y-118790357D01*
X175922214Y-118935500D01*
X175922214Y-119116929D01*
X175885929Y-119262071D01*
X175849643Y-119334643D01*
X175813357Y-119370929D01*
X175740786Y-119407214D01*
X175668214Y-119407214D01*
X175595643Y-119370929D01*
X175559357Y-119334643D01*
X175523072Y-119262071D01*
X175486786Y-119116929D01*
X175486786Y-118935500D01*
X175523072Y-118790357D01*
X175559357Y-118717786D01*
X175595643Y-118681500D01*
X175668214Y-118645214D01*
X176212500Y-118717786D02*
X176248786Y-118681500D01*
X176321357Y-118645214D01*
X176502786Y-118645214D01*
X176575357Y-118681500D01*
X176611643Y-118717786D01*
X176647928Y-118790357D01*
X176647928Y-118862929D01*
X176611643Y-118971786D01*
X176176214Y-119407214D01*
X176647928Y-119407214D01*
X168801143Y-100420714D02*
X168837429Y-100457000D01*
X168873714Y-100565857D01*
X168873714Y-100638428D01*
X168837429Y-100747285D01*
X168764857Y-100819857D01*
X168692286Y-100856142D01*
X168547143Y-100892428D01*
X168438286Y-100892428D01*
X168293143Y-100856142D01*
X168220571Y-100819857D01*
X168148000Y-100747285D01*
X168111714Y-100638428D01*
X168111714Y-100565857D01*
X168148000Y-100457000D01*
X168184286Y-100420714D01*
X168873714Y-99695000D02*
X168873714Y-100130428D01*
X168873714Y-99912714D02*
X168111714Y-99912714D01*
X168220571Y-99985285D01*
X168293143Y-100057857D01*
X168329429Y-100130428D01*
X168111714Y-99223286D02*
X168111714Y-99150714D01*
X168148000Y-99078143D01*
X168184286Y-99041857D01*
X168256857Y-99005571D01*
X168402000Y-98969286D01*
X168583429Y-98969286D01*
X168728571Y-99005571D01*
X168801143Y-99041857D01*
X168837429Y-99078143D01*
X168873714Y-99150714D01*
X168873714Y-99223286D01*
X168837429Y-99295857D01*
X168801143Y-99332143D01*
X168728571Y-99368428D01*
X168583429Y-99404714D01*
X168402000Y-99404714D01*
X168256857Y-99368428D01*
X168184286Y-99332143D01*
X168148000Y-99295857D01*
X168111714Y-99223286D01*
X168111714Y-98715286D02*
X168111714Y-98243572D01*
X168402000Y-98497572D01*
X168402000Y-98388714D01*
X168438286Y-98316143D01*
X168474571Y-98279857D01*
X168547143Y-98243572D01*
X168728571Y-98243572D01*
X168801143Y-98279857D01*
X168837429Y-98316143D01*
X168873714Y-98388714D01*
X168873714Y-98606429D01*
X168837429Y-98679000D01*
X168801143Y-98715286D01*
X175677286Y-104475643D02*
X175641000Y-104511929D01*
X175532143Y-104548214D01*
X175459572Y-104548214D01*
X175350715Y-104511929D01*
X175278143Y-104439357D01*
X175241858Y-104366786D01*
X175205572Y-104221643D01*
X175205572Y-104112786D01*
X175241858Y-103967643D01*
X175278143Y-103895071D01*
X175350715Y-103822500D01*
X175459572Y-103786214D01*
X175532143Y-103786214D01*
X175641000Y-103822500D01*
X175677286Y-103858786D01*
X176403000Y-104548214D02*
X175967572Y-104548214D01*
X176185286Y-104548214D02*
X176185286Y-103786214D01*
X176112715Y-103895071D01*
X176040143Y-103967643D01*
X175967572Y-104003929D01*
X176874714Y-103786214D02*
X176947286Y-103786214D01*
X177019857Y-103822500D01*
X177056143Y-103858786D01*
X177092429Y-103931357D01*
X177128714Y-104076500D01*
X177128714Y-104257929D01*
X177092429Y-104403071D01*
X177056143Y-104475643D01*
X177019857Y-104511929D01*
X176947286Y-104548214D01*
X176874714Y-104548214D01*
X176802143Y-104511929D01*
X176765857Y-104475643D01*
X176729572Y-104403071D01*
X176693286Y-104257929D01*
X176693286Y-104076500D01*
X176729572Y-103931357D01*
X176765857Y-103858786D01*
X176802143Y-103822500D01*
X176874714Y-103786214D01*
X177781857Y-104040214D02*
X177781857Y-104548214D01*
X177600428Y-103749929D02*
X177419000Y-104294214D01*
X177890714Y-104294214D01*
X156763358Y-104865714D02*
X156763358Y-104103714D01*
X157053643Y-104103714D01*
X157126215Y-104140000D01*
X157162500Y-104176286D01*
X157198786Y-104248857D01*
X157198786Y-104357714D01*
X157162500Y-104430286D01*
X157126215Y-104466571D01*
X157053643Y-104502857D01*
X156763358Y-104502857D01*
X157924500Y-104865714D02*
X157489072Y-104865714D01*
X157706786Y-104865714D02*
X157706786Y-104103714D01*
X157634215Y-104212571D01*
X157561643Y-104285143D01*
X157489072Y-104321429D01*
X158396214Y-104103714D02*
X158468786Y-104103714D01*
X158541357Y-104140000D01*
X158577643Y-104176286D01*
X158613929Y-104248857D01*
X158650214Y-104394000D01*
X158650214Y-104575429D01*
X158613929Y-104720571D01*
X158577643Y-104793143D01*
X158541357Y-104829429D01*
X158468786Y-104865714D01*
X158396214Y-104865714D01*
X158323643Y-104829429D01*
X158287357Y-104793143D01*
X158251072Y-104720571D01*
X158214786Y-104575429D01*
X158214786Y-104394000D01*
X158251072Y-104248857D01*
X158287357Y-104176286D01*
X158323643Y-104140000D01*
X158396214Y-104103714D01*
X159375928Y-104865714D02*
X158940500Y-104865714D01*
X159158214Y-104865714D02*
X159158214Y-104103714D01*
X159085643Y-104212571D01*
X159013071Y-104285143D01*
X158940500Y-104321429D01*
X172892358Y-93372214D02*
X172892358Y-92610214D01*
X173182643Y-92610214D01*
X173255215Y-92646500D01*
X173291500Y-92682786D01*
X173327786Y-92755357D01*
X173327786Y-92864214D01*
X173291500Y-92936786D01*
X173255215Y-92973071D01*
X173182643Y-93009357D01*
X172892358Y-93009357D01*
X174053500Y-93372214D02*
X173618072Y-93372214D01*
X173835786Y-93372214D02*
X173835786Y-92610214D01*
X173763215Y-92719071D01*
X173690643Y-92791643D01*
X173618072Y-92827929D01*
X174525214Y-92610214D02*
X174597786Y-92610214D01*
X174670357Y-92646500D01*
X174706643Y-92682786D01*
X174742929Y-92755357D01*
X174779214Y-92900500D01*
X174779214Y-93081929D01*
X174742929Y-93227071D01*
X174706643Y-93299643D01*
X174670357Y-93335929D01*
X174597786Y-93372214D01*
X174525214Y-93372214D01*
X174452643Y-93335929D01*
X174416357Y-93299643D01*
X174380072Y-93227071D01*
X174343786Y-93081929D01*
X174343786Y-92900500D01*
X174380072Y-92755357D01*
X174416357Y-92682786D01*
X174452643Y-92646500D01*
X174525214Y-92610214D01*
X175069500Y-92682786D02*
X175105786Y-92646500D01*
X175178357Y-92610214D01*
X175359786Y-92610214D01*
X175432357Y-92646500D01*
X175468643Y-92682786D01*
X175504928Y-92755357D01*
X175504928Y-92827929D01*
X175468643Y-92936786D01*
X175033214Y-93372214D01*
X175504928Y-93372214D01*
X182081714Y-113111642D02*
X181319714Y-113111642D01*
X181319714Y-112821357D01*
X181356000Y-112748785D01*
X181392286Y-112712500D01*
X181464857Y-112676214D01*
X181573714Y-112676214D01*
X181646286Y-112712500D01*
X181682571Y-112748785D01*
X181718857Y-112821357D01*
X181718857Y-113111642D01*
X182081714Y-111950500D02*
X182081714Y-112385928D01*
X182081714Y-112168214D02*
X181319714Y-112168214D01*
X181428571Y-112240785D01*
X181501143Y-112313357D01*
X181537429Y-112385928D01*
X181319714Y-111478786D02*
X181319714Y-111406214D01*
X181356000Y-111333643D01*
X181392286Y-111297357D01*
X181464857Y-111261071D01*
X181610000Y-111224786D01*
X181791429Y-111224786D01*
X181936571Y-111261071D01*
X182009143Y-111297357D01*
X182045429Y-111333643D01*
X182081714Y-111406214D01*
X182081714Y-111478786D01*
X182045429Y-111551357D01*
X182009143Y-111587643D01*
X181936571Y-111623928D01*
X181791429Y-111660214D01*
X181610000Y-111660214D01*
X181464857Y-111623928D01*
X181392286Y-111587643D01*
X181356000Y-111551357D01*
X181319714Y-111478786D01*
X181319714Y-110970786D02*
X181319714Y-110499072D01*
X181610000Y-110753072D01*
X181610000Y-110644214D01*
X181646286Y-110571643D01*
X181682571Y-110535357D01*
X181755143Y-110499072D01*
X181936571Y-110499072D01*
X182009143Y-110535357D01*
X182045429Y-110571643D01*
X182081714Y-110644214D01*
X182081714Y-110861929D01*
X182045429Y-110934500D01*
X182009143Y-110970786D01*
X161063214Y-103468714D02*
X160700357Y-103722714D01*
X161063214Y-103904142D02*
X160301214Y-103904142D01*
X160301214Y-103613857D01*
X160337500Y-103541285D01*
X160373786Y-103505000D01*
X160446357Y-103468714D01*
X160555214Y-103468714D01*
X160627786Y-103505000D01*
X160664071Y-103541285D01*
X160700357Y-103613857D01*
X160700357Y-103904142D01*
X161063214Y-102743000D02*
X161063214Y-103178428D01*
X161063214Y-102960714D02*
X160301214Y-102960714D01*
X160410071Y-103033285D01*
X160482643Y-103105857D01*
X160518929Y-103178428D01*
X160301214Y-102271286D02*
X160301214Y-102198714D01*
X160337500Y-102126143D01*
X160373786Y-102089857D01*
X160446357Y-102053571D01*
X160591500Y-102017286D01*
X160772929Y-102017286D01*
X160918071Y-102053571D01*
X160990643Y-102089857D01*
X161026929Y-102126143D01*
X161063214Y-102198714D01*
X161063214Y-102271286D01*
X161026929Y-102343857D01*
X160990643Y-102380143D01*
X160918071Y-102416428D01*
X160772929Y-102452714D01*
X160591500Y-102452714D01*
X160446357Y-102416428D01*
X160373786Y-102380143D01*
X160337500Y-102343857D01*
X160301214Y-102271286D01*
X161063214Y-101291572D02*
X161063214Y-101727000D01*
X161063214Y-101509286D02*
X160301214Y-101509286D01*
X160410071Y-101581857D01*
X160482643Y-101654429D01*
X160518929Y-101727000D01*
X164691786Y-111914214D02*
X164437786Y-111551357D01*
X164256358Y-111914214D02*
X164256358Y-111152214D01*
X164546643Y-111152214D01*
X164619215Y-111188500D01*
X164655500Y-111224786D01*
X164691786Y-111297357D01*
X164691786Y-111406214D01*
X164655500Y-111478786D01*
X164619215Y-111515071D01*
X164546643Y-111551357D01*
X164256358Y-111551357D01*
X165417500Y-111914214D02*
X164982072Y-111914214D01*
X165199786Y-111914214D02*
X165199786Y-111152214D01*
X165127215Y-111261071D01*
X165054643Y-111333643D01*
X164982072Y-111369929D01*
X165889214Y-111152214D02*
X165961786Y-111152214D01*
X166034357Y-111188500D01*
X166070643Y-111224786D01*
X166106929Y-111297357D01*
X166143214Y-111442500D01*
X166143214Y-111623929D01*
X166106929Y-111769071D01*
X166070643Y-111841643D01*
X166034357Y-111877929D01*
X165961786Y-111914214D01*
X165889214Y-111914214D01*
X165816643Y-111877929D01*
X165780357Y-111841643D01*
X165744072Y-111769071D01*
X165707786Y-111623929D01*
X165707786Y-111442500D01*
X165744072Y-111297357D01*
X165780357Y-111224786D01*
X165816643Y-111188500D01*
X165889214Y-111152214D01*
X166433500Y-111224786D02*
X166469786Y-111188500D01*
X166542357Y-111152214D01*
X166723786Y-111152214D01*
X166796357Y-111188500D01*
X166832643Y-111224786D01*
X166868928Y-111297357D01*
X166868928Y-111369929D01*
X166832643Y-111478786D01*
X166397214Y-111914214D01*
X166868928Y-111914214D01*
X164056786Y-106580214D02*
X163802786Y-106217357D01*
X163621358Y-106580214D02*
X163621358Y-105818214D01*
X163911643Y-105818214D01*
X163984215Y-105854500D01*
X164020500Y-105890786D01*
X164056786Y-105963357D01*
X164056786Y-106072214D01*
X164020500Y-106144786D01*
X163984215Y-106181071D01*
X163911643Y-106217357D01*
X163621358Y-106217357D01*
X164782500Y-106580214D02*
X164347072Y-106580214D01*
X164564786Y-106580214D02*
X164564786Y-105818214D01*
X164492215Y-105927071D01*
X164419643Y-105999643D01*
X164347072Y-106035929D01*
X165254214Y-105818214D02*
X165326786Y-105818214D01*
X165399357Y-105854500D01*
X165435643Y-105890786D01*
X165471929Y-105963357D01*
X165508214Y-106108500D01*
X165508214Y-106289929D01*
X165471929Y-106435071D01*
X165435643Y-106507643D01*
X165399357Y-106543929D01*
X165326786Y-106580214D01*
X165254214Y-106580214D01*
X165181643Y-106543929D01*
X165145357Y-106507643D01*
X165109072Y-106435071D01*
X165072786Y-106289929D01*
X165072786Y-106108500D01*
X165109072Y-105963357D01*
X165145357Y-105890786D01*
X165181643Y-105854500D01*
X165254214Y-105818214D01*
X165762214Y-105818214D02*
X166233928Y-105818214D01*
X165979928Y-106108500D01*
X166088786Y-106108500D01*
X166161357Y-106144786D01*
X166197643Y-106181071D01*
X166233928Y-106253643D01*
X166233928Y-106435071D01*
X166197643Y-106507643D01*
X166161357Y-106543929D01*
X166088786Y-106580214D01*
X165871071Y-106580214D01*
X165798500Y-106543929D01*
X165762214Y-106507643D01*
X173191714Y-100484214D02*
X172828857Y-100738214D01*
X173191714Y-100919642D02*
X172429714Y-100919642D01*
X172429714Y-100629357D01*
X172466000Y-100556785D01*
X172502286Y-100520500D01*
X172574857Y-100484214D01*
X172683714Y-100484214D01*
X172756286Y-100520500D01*
X172792571Y-100556785D01*
X172828857Y-100629357D01*
X172828857Y-100919642D01*
X173191714Y-99758500D02*
X173191714Y-100193928D01*
X173191714Y-99976214D02*
X172429714Y-99976214D01*
X172538571Y-100048785D01*
X172611143Y-100121357D01*
X172647429Y-100193928D01*
X172429714Y-99286786D02*
X172429714Y-99214214D01*
X172466000Y-99141643D01*
X172502286Y-99105357D01*
X172574857Y-99069071D01*
X172720000Y-99032786D01*
X172901429Y-99032786D01*
X173046571Y-99069071D01*
X173119143Y-99105357D01*
X173155429Y-99141643D01*
X173191714Y-99214214D01*
X173191714Y-99286786D01*
X173155429Y-99359357D01*
X173119143Y-99395643D01*
X173046571Y-99431928D01*
X172901429Y-99468214D01*
X172720000Y-99468214D01*
X172574857Y-99431928D01*
X172502286Y-99395643D01*
X172466000Y-99359357D01*
X172429714Y-99286786D01*
X172683714Y-98379643D02*
X173191714Y-98379643D01*
X172393429Y-98561072D02*
X172937714Y-98742500D01*
X172937714Y-98270786D01*
X173445714Y-105056214D02*
X173082857Y-105310214D01*
X173445714Y-105491642D02*
X172683714Y-105491642D01*
X172683714Y-105201357D01*
X172720000Y-105128785D01*
X172756286Y-105092500D01*
X172828857Y-105056214D01*
X172937714Y-105056214D01*
X173010286Y-105092500D01*
X173046571Y-105128785D01*
X173082857Y-105201357D01*
X173082857Y-105491642D01*
X173445714Y-104330500D02*
X173445714Y-104765928D01*
X173445714Y-104548214D02*
X172683714Y-104548214D01*
X172792571Y-104620785D01*
X172865143Y-104693357D01*
X172901429Y-104765928D01*
X172683714Y-103858786D02*
X172683714Y-103786214D01*
X172720000Y-103713643D01*
X172756286Y-103677357D01*
X172828857Y-103641071D01*
X172974000Y-103604786D01*
X173155429Y-103604786D01*
X173300571Y-103641071D01*
X173373143Y-103677357D01*
X173409429Y-103713643D01*
X173445714Y-103786214D01*
X173445714Y-103858786D01*
X173409429Y-103931357D01*
X173373143Y-103967643D01*
X173300571Y-104003928D01*
X173155429Y-104040214D01*
X172974000Y-104040214D01*
X172828857Y-104003928D01*
X172756286Y-103967643D01*
X172720000Y-103931357D01*
X172683714Y-103858786D01*
X172683714Y-102915357D02*
X172683714Y-103278214D01*
X173046571Y-103314500D01*
X173010286Y-103278214D01*
X172974000Y-103205643D01*
X172974000Y-103024214D01*
X173010286Y-102951643D01*
X173046571Y-102915357D01*
X173119143Y-102879072D01*
X173300571Y-102879072D01*
X173373143Y-102915357D01*
X173409429Y-102951643D01*
X173445714Y-103024214D01*
X173445714Y-103205643D01*
X173409429Y-103278214D01*
X173373143Y-103314500D01*
X168238714Y-116295714D02*
X167875857Y-116549714D01*
X168238714Y-116731142D02*
X167476714Y-116731142D01*
X167476714Y-116440857D01*
X167513000Y-116368285D01*
X167549286Y-116332000D01*
X167621857Y-116295714D01*
X167730714Y-116295714D01*
X167803286Y-116332000D01*
X167839571Y-116368285D01*
X167875857Y-116440857D01*
X167875857Y-116731142D01*
X168238714Y-115570000D02*
X168238714Y-116005428D01*
X168238714Y-115787714D02*
X167476714Y-115787714D01*
X167585571Y-115860285D01*
X167658143Y-115932857D01*
X167694429Y-116005428D01*
X167476714Y-115098286D02*
X167476714Y-115025714D01*
X167513000Y-114953143D01*
X167549286Y-114916857D01*
X167621857Y-114880571D01*
X167767000Y-114844286D01*
X167948429Y-114844286D01*
X168093571Y-114880571D01*
X168166143Y-114916857D01*
X168202429Y-114953143D01*
X168238714Y-115025714D01*
X168238714Y-115098286D01*
X168202429Y-115170857D01*
X168166143Y-115207143D01*
X168093571Y-115243428D01*
X167948429Y-115279714D01*
X167767000Y-115279714D01*
X167621857Y-115243428D01*
X167549286Y-115207143D01*
X167513000Y-115170857D01*
X167476714Y-115098286D01*
X167476714Y-114191143D02*
X167476714Y-114336286D01*
X167513000Y-114408857D01*
X167549286Y-114445143D01*
X167658143Y-114517714D01*
X167803286Y-114554000D01*
X168093571Y-114554000D01*
X168166143Y-114517714D01*
X168202429Y-114481429D01*
X168238714Y-114408857D01*
X168238714Y-114263714D01*
X168202429Y-114191143D01*
X168166143Y-114154857D01*
X168093571Y-114118572D01*
X167912143Y-114118572D01*
X167839571Y-114154857D01*
X167803286Y-114191143D01*
X167767000Y-114263714D01*
X167767000Y-114408857D01*
X167803286Y-114481429D01*
X167839571Y-114517714D01*
X167912143Y-114554000D01*
X168111714Y-120486714D02*
X167748857Y-120740714D01*
X168111714Y-120922142D02*
X167349714Y-120922142D01*
X167349714Y-120631857D01*
X167386000Y-120559285D01*
X167422286Y-120523000D01*
X167494857Y-120486714D01*
X167603714Y-120486714D01*
X167676286Y-120523000D01*
X167712571Y-120559285D01*
X167748857Y-120631857D01*
X167748857Y-120922142D01*
X168111714Y-119761000D02*
X168111714Y-120196428D01*
X168111714Y-119978714D02*
X167349714Y-119978714D01*
X167458571Y-120051285D01*
X167531143Y-120123857D01*
X167567429Y-120196428D01*
X167349714Y-119289286D02*
X167349714Y-119216714D01*
X167386000Y-119144143D01*
X167422286Y-119107857D01*
X167494857Y-119071571D01*
X167640000Y-119035286D01*
X167821429Y-119035286D01*
X167966571Y-119071571D01*
X168039143Y-119107857D01*
X168075429Y-119144143D01*
X168111714Y-119216714D01*
X168111714Y-119289286D01*
X168075429Y-119361857D01*
X168039143Y-119398143D01*
X167966571Y-119434428D01*
X167821429Y-119470714D01*
X167640000Y-119470714D01*
X167494857Y-119434428D01*
X167422286Y-119398143D01*
X167386000Y-119361857D01*
X167349714Y-119289286D01*
X167349714Y-118781286D02*
X167349714Y-118273286D01*
X168111714Y-118599857D01*
D12*
X173196381Y-110656619D02*
X173101143Y-110609000D01*
X173005905Y-110513762D01*
X172863048Y-110370905D01*
X172767809Y-110323286D01*
X172672571Y-110323286D01*
X172720190Y-110561381D02*
X172624952Y-110513762D01*
X172529714Y-110418524D01*
X172482095Y-110228048D01*
X172482095Y-109894714D01*
X172529714Y-109704238D01*
X172624952Y-109609000D01*
X172720190Y-109561381D01*
X172910667Y-109561381D01*
X173005905Y-109609000D01*
X173101143Y-109704238D01*
X173148762Y-109894714D01*
X173148762Y-110228048D01*
X173101143Y-110418524D01*
X173005905Y-110513762D01*
X172910667Y-110561381D01*
X172720190Y-110561381D01*
X174101143Y-110561381D02*
X173529714Y-110561381D01*
X173815428Y-110561381D02*
X173815428Y-109561381D01*
X173720190Y-109704238D01*
X173624952Y-109799476D01*
X173529714Y-109847095D01*
X174720190Y-109561381D02*
X174815429Y-109561381D01*
X174910667Y-109609000D01*
X174958286Y-109656619D01*
X175005905Y-109751857D01*
X175053524Y-109942333D01*
X175053524Y-110180429D01*
X175005905Y-110370905D01*
X174958286Y-110466143D01*
X174910667Y-110513762D01*
X174815429Y-110561381D01*
X174720190Y-110561381D01*
X174624952Y-110513762D01*
X174577333Y-110466143D01*
X174529714Y-110370905D01*
X174482095Y-110180429D01*
X174482095Y-109942333D01*
X174529714Y-109751857D01*
X174577333Y-109656619D01*
X174624952Y-109609000D01*
X174720190Y-109561381D01*
X176005905Y-110561381D02*
X175434476Y-110561381D01*
X175720190Y-110561381D02*
X175720190Y-109561381D01*
X175624952Y-109704238D01*
X175529714Y-109799476D01*
X175434476Y-109847095D01*
%LPC*%
D14*
X162147000Y-113792000D03*
X158147000Y-113792000D03*
X177260000Y-116840000D03*
X173260000Y-116840000D03*
D15*
X166573200Y-101415600D03*
X166573200Y-97415600D03*
D14*
X179546000Y-101650800D03*
X175546000Y-101650800D03*
D16*
X158559500Y-109474000D03*
D17*
X158559500Y-106934000D03*
D16*
X168275000Y-94107000D03*
D17*
X170815000Y-94107000D03*
D16*
X179527200Y-109169200D03*
D17*
X179527200Y-111709200D03*
D18*
X162255200Y-102536000D03*
X162255200Y-105236000D03*
X165798500Y-113204000D03*
X165798500Y-115904000D03*
D19*
X164976800Y-107950000D03*
X162276800Y-107950000D03*
D18*
X171145200Y-97405200D03*
X171145200Y-100105200D03*
X171196000Y-105490000D03*
X171196000Y-102790000D03*
X169468800Y-116564400D03*
X169468800Y-113864400D03*
X169468800Y-119147600D03*
X169468800Y-121847600D03*
D20*
X163830000Y-121602500D03*
X163576000Y-94424500D03*
X176022000Y-97790000D03*
D21*
X168910000Y-109728000D03*
X170180000Y-108458000D03*
X170180000Y-110998000D03*
M02*
